<?xml version="1.0" encoding="utf-8"?>
<!-- Generator: Adobe Illustrator 21.0.2, SVG Export Plug-In . SVG Version: 6.00 Build 0)  -->
<svg version="1.1" id="Layer_1" xmlns="http://www.w3.org/2000/svg" xmlns:xlink="http://www.w3.org/1999/xlink" x="0px" y="0px"
	 viewBox="0 0 2500 825" style="enable-background:new 0 0 2500 825;" xml:space="preserve">
<style type="text/css">
	.st0{fill:#797979;}
</style>
<path class="st0" d="M205.7,215.6h-23.4V80.8c0-10.7,0.7-23.7,2-39.1h-0.6c-2.2,9.1-4.3,15.6-6,19.5l-68.7,154.5H97.4L28.9,62.3
	c-2-4.5-4-11.4-6-20.6h-0.6c0.7,8,1.1,21.2,1.1,39.4v134.6H0.7v-201h31.1l61.7,140.2c4.8,10.7,7.9,18.8,9.3,24.1h0.8
	c4-11,7.2-19.3,9.7-24.7l63-139.6h29.4L205.7,215.6L205.7,215.6z M267.2,35.6c-4.1,0-7.6-1.4-10.5-4.2c-2.9-2.8-4.3-6.4-4.3-10.7
	s1.4-7.9,4.3-10.7c2.9-2.8,6.4-4.3,10.5-4.3c4.2,0,7.8,1.4,10.7,4.3c2.9,2.8,4.4,6.4,4.4,10.7c0,4.1-1.5,7.6-4.4,10.5
	C275,34.2,271.4,35.6,267.2,35.6z M278.4,215.6h-23V72.1h23V215.6z M422.8,209c-11,6.6-24.1,10-39.3,10c-20.5,0-37-6.7-49.6-20
	c-12.6-13.3-18.8-30.6-18.8-51.8c0-23.6,6.8-42.6,20.3-57c13.6-14.3,31.6-21.5,54.3-21.5c12.6,0,23.7,2.3,33.4,7v23.6
	C412.5,91.8,401.1,88,388.9,88c-14.7,0-26.7,5.3-36.1,15.8c-9.4,10.5-14.1,24.3-14.1,41.4c0,16.8,4.4,30.1,13.2,39.8
	c8.8,9.7,20.7,14.6,35.5,14.6c12.5,0,24.3-4.2,35.3-12.5L422.8,209L422.8,209z M532.5,95.3c-4-3.1-9.8-4.6-17.4-4.6
	c-9.8,0-18,4.6-24.6,13.9c-6.6,9.3-9.9,21.9-9.9,37.9v73.2h-23V72.1h23v29.6h0.6c3.3-10.1,8.3-18,15-23.6c6.7-5.7,14.3-8.5,22.6-8.5
	c6,0,10.6,0.7,13.7,2L532.5,95.3L532.5,95.3z M613.7,219c-21.2,0-38.2-6.7-50.8-20.1c-12.7-13.4-19-31.2-19-53.3
	c0-24.1,6.6-42.9,19.8-56.5c13.2-13.6,31-20.3,53.4-20.3c21.4,0,38.1,6.6,50.1,19.8c12,13.2,18,31.5,18,54.8
	c0,22.9-6.5,41.2-19.4,55S635.4,219,613.7,219L613.7,219z M615.3,88c-14.8,0-26.4,5-35,15.1c-8.6,10-12.9,23.9-12.9,41.6
	c0,17,4.3,30.4,13,40.2c8.7,9.8,20.3,14.7,34.9,14.7c14.9,0,26.3-4.8,34.3-14.4c8-9.6,12-23.3,12-41.1c0-17.9-4-31.8-12-41.5
	C641.6,92.9,630.2,88,615.3,88z M713.2,210.4v-24.7c12.5,9.3,26.3,13.9,41.4,13.9c20.2,0,30.3-6.7,30.3-20.2c0-3.8-0.9-7.1-2.6-9.7
	c-1.7-2.7-4.1-5-7-7.1c-2.9-2.1-6.4-3.9-10.4-5.5c-4.3-1.7-8.5-3.5-12.8-5.1c-6.4-2.5-11.9-5.1-16.8-7.6c-4.8-2.6-8.8-5.5-12.1-8.7
	c-3.2-3.2-5.7-6.9-7.3-11c-1.6-4.1-2.5-8.9-2.5-14.4c0-6.7,1.5-12.7,4.6-17.9c3.1-5.2,7.2-9.5,12.3-13c5.1-3.5,11-6.1,17.6-7.9
	c6.7-1.8,13.5-2.7,20.4-2.7c12.4,0,23.6,2.2,33.4,6.4v23.3c-10.6-6.9-22.7-10.4-36.5-10.4c-4.3,0-8.2,0.5-11.6,1.5
	c-3.5,1-6.4,2.4-8.9,4.1c-2.5,1.8-4.4,3.9-5.7,6.4c-1.4,2.5-2,5.2-2,8.2c0,3.7,0.7,6.9,2,9.4c1.4,2.5,3.3,4.8,6,6.7
	c2.6,2,5.8,3.7,9.5,5.3s8,3.3,12.8,5.2c6.4,2.4,12,4.9,17.1,7.5c5,2.6,9.3,5.5,12.9,8.7c3.5,3.2,6.3,6.9,8.2,11.1
	c1.9,4.2,2.9,9.2,2.9,15c0,7.1-1.6,13.3-4.7,18.5c-3.1,5.2-7.3,9.6-12.5,13c-5.2,3.5-11.3,6-18.1,7.7c-6.8,1.7-14,2.5-21.4,2.5
	C736.8,219,724,216.1,713.2,210.4L713.2,210.4z M903.7,219c-21.2,0-38.2-6.7-50.8-20.1c-12.7-13.4-19-31.2-19-53.3
	c0-24.1,6.6-42.9,19.8-56.5c13.2-13.6,31-20.3,53.4-20.3c21.4,0,38.1,6.6,50.1,19.8c12,13.2,18,31.5,18,54.8
	c0,22.9-6.5,41.2-19.4,55C942.9,212.1,925.5,219,903.7,219L903.7,219z M905.4,88c-14.8,0-26.5,5-35.1,15.1
	c-8.6,10-12.9,23.9-12.9,41.6c0,17,4.3,30.4,13,40.2c8.7,9.8,20.3,14.7,34.9,14.7c14.9,0,26.3-4.8,34.3-14.4c8-9.6,12-23.3,12-41.1
	c0-17.9-4-31.8-12-41.5C931.7,92.9,920.3,88,905.4,88z M1077.7,23.3c-4.5-2.5-9.6-3.8-15.3-3.8c-16.1,0-24.1,10.1-24.1,30.4v22.2
	h33.6v19.6h-33.6v123.9h-22.9V91.7h-24.5V72.1h24.5V48.8c0-15,4.3-26.9,13-35.7C1037.2,4.4,1048,0,1061,0c7,0,12.6,0.8,16.7,2.5
	C1077.7,2.5,1077.7,23.3,1077.7,23.3z M1168.4,214.2c-5.4,3-12.6,4.5-21.4,4.5c-25.1,0-37.7-14-37.7-42.1v-85h-24.7V72.1h24.7V37
	l23-7.4v42.5h36.2v19.6h-36.2v80.9c0,9.6,1.6,16.5,4.9,20.6c3.3,4.1,8.7,6.2,16.3,6.2c5.8,0,10.8-1.6,15-4.8L1168.4,214.2
	L1168.4,214.2z M0.4,815.8V266.7H152c193.5,0,290.2,89.2,290.2,267.7c0,84.8-26.9,152.8-80.6,204.3
	c-53.7,51.4-125.7,77.2-215.8,77.2H0.4z M64.7,324.9v432.7h81.9c72,0,128-19.3,168.1-57.8s60.1-93.2,60.1-163.9
	c0-140.7-74.8-211-224.4-211L64.7,324.9L64.7,324.9z M574,324.2c-11.2,0-20.8-3.8-28.7-11.5c-7.9-7.7-11.9-17.4-11.9-29.1
	c0-11.7,4-21.5,11.9-29.3c7.9-7.8,17.5-11.7,28.7-11.7c11.5,0,21.2,3.9,29.3,11.7c8,7.8,12.1,17.6,12.1,29.3
	c0,11.2-4,20.8-12.1,28.7C595.2,320.2,585.5,324.2,574,324.2L574,324.2z M604.6,815.8h-62.8V423.7h62.8V815.8z M936.2,487.3
	c-11-8.4-26.8-12.6-47.5-12.6c-26.8,0-49.2,12.6-67.2,37.9c-18,25.3-27,59.7-27,103.4v199.9h-62.8V423.7h62.8v80.8h1.5
	c8.9-27.6,22.6-49.1,41-64.5c18.4-15.4,38.9-23.2,61.6-23.2c16.3,0,28.8,1.8,37.5,5.4L936.2,487.3L936.2,487.3L936.2,487.3z
	 M1309.1,635.5h-276.8c1,43.7,12.8,77.3,35.2,101.1c22.5,23.7,53.4,35.6,92.7,35.6c44.2,0,84.7-14.5,121.8-43.7v59
	c-34.5,25-80,37.5-136.7,37.5c-55.4,0-98.9-17.8-130.6-53.4c-31.7-35.6-47.5-85.7-47.5-150.3c0-61,17.3-110.7,51.9-149.1
	c34.6-38.4,77.5-57.6,128.8-57.6c51.3,0,91,16.6,119.1,49.8c28.1,33.2,42.1,79.3,42.1,138.2L1309.1,635.5z M1244.8,582.2
	c-0.3-36.2-9-64.5-26.2-84.6c-17.2-20.2-41.2-30.3-71.8-30.3c-29.6,0-54.7,10.6-75.4,31.8s-33.4,48.9-38.3,83.1L1244.8,582.2
	L1244.8,582.2z M1671.4,797.8c-30.1,18.1-65.9,27.2-107.2,27.2c-55.9,0-101-18.2-135.4-54.6c-34.3-36.4-51.5-83.5-51.5-141.5
	c0-64.6,18.5-116.5,55.5-155.6c37-39.2,86.4-58.8,148.2-58.8c34.5,0,64.8,6.4,91.1,19.1V498c-29.1-20.4-60.3-30.6-93.4-30.6
	c-40.1,0-72.9,14.4-98.6,43.1c-25.7,28.7-38.5,66.4-38.5,113.1c0,45.9,12.1,82.2,36.2,108.7c24.1,26.6,56.5,39.8,97.1,39.8
	c34.2,0,66.4-11.4,96.5-34.1L1671.4,797.8L1671.4,797.8L1671.4,797.8z M1948.2,812c-14.8,8.2-34.3,12.3-58.6,12.3
	c-68.7,0-103-38.3-103-114.9v-232h-67.4v-53.6h67.4V328l62.8-20.3v116h98.8v53.6h-98.8v220.9c0,26.3,4.5,45.1,13.4,56.3
	c8.9,11.2,23.7,16.8,44.4,16.8c15.8,0,29.5-4.3,41-13V812L1948.2,812z M2419.6,815.8h-78.5l-126.4-210.2c-3.8-6.4-8-15.4-12.6-27.2
	h-1.5c-2.6,5.9-6.9,14.9-13,27.2l-130.2,210.2h-78.9l183.8-276.1l-169.2-273h78.9l112.2,193c7.4,12.8,13.9,25.5,19.5,38.3h1.5
	c8.2-16.8,15.3-30.1,21.4-39.8l116.8-191.4h73.9L2244.6,539L2419.6,815.8z M1220,107.4c-10.6,0-19.7-3.8-27.2-11.3
	c-7.5-7.5-11.2-16.6-11.2-27.2c0-10.6,3.7-19.7,11.2-27.2c7.5-7.5,16.6-11.2,27.2-11.2c10.6,0,19.6,3.8,27.1,11.2
	c7.5,7.5,11.3,16.6,11.3,27.2c0,10.6-3.8,19.7-11.3,27.2C1239.7,103.7,1230.6,107.4,1220,107.4z M1220,35c-9.4,0-17.4,3.3-24,9.9
	c-6.6,6.6-9.9,14.6-9.9,24s3.3,17.4,9.9,24c6.6,6.6,14.6,9.9,24,9.9c9.4,0,17.3-3.3,24-9.9c6.6-6.6,9.9-14.6,9.9-24
	s-3.3-17.4-9.9-24C1237.4,38.3,1229.4,35,1220,35L1220,35z M1238.7,93h-8.3l-5.3-11.7c-2.7-5.9-5.6-8.8-8.7-8.8h-4.5V93h-6.8V44.1
	h13.7c5.7,0,10.1,1.2,13.2,3.6c3.1,2.4,4.6,5.6,4.6,9.7c0,3.3-1.1,6.2-3.3,8.6c-2.2,2.4-5.2,3.9-9.1,4.8V71c2.7,0.6,5.4,3.6,8,9
	L1238.7,93L1238.7,93z M1211.8,49.9v16.7h7.3c6.7,0,10.1-2.8,10.1-8.4c0-3-0.9-5.1-2.7-6.4c-1.8-1.3-4.7-1.9-8.6-1.9H1211.8z
	 M2461.2,347.9c-10.6,0-19.7-3.7-27.2-11.3c-7.5-7.5-11.3-16.6-11.3-27.2c0-10.6,3.8-19.7,11.3-27.2c7.5-7.5,16.6-11.2,27.2-11.2
	c10.6,0,19.6,3.8,27.1,11.2c7.5,7.5,11.3,16.6,11.3,27.2c0,10.6-3.8,19.7-11.3,27.2C2480.9,344.2,2471.8,347.9,2461.2,347.9z
	 M2461.2,275.5c-9.4,0-17.4,3.3-24,9.9c-6.6,6.6-10,14.6-10,24c0,9.4,3.3,17.3,10,24c6.6,6.6,14.6,9.9,24,9.9c9.4,0,17.3-3.3,24-9.9
	c6.6-6.6,9.9-14.6,9.9-24c0-9.4-3.3-17.4-9.9-24C2478.6,278.8,2470.6,275.5,2461.2,275.5z M2479.9,333.5h-8.3l-5.3-11.7
	c-2.7-5.9-5.6-8.8-8.7-8.8h-4.5v20.6h-6.8v-48.9h13.7c5.7,0,10.1,1.2,13.2,3.6c3.1,2.4,4.6,5.6,4.6,9.7c0,3.3-1.1,6.2-3.3,8.6
	c-2.2,2.4-5.2,3.9-9.1,4.8v0.2c2.7,0.6,5.4,3.6,8,9L2479.9,333.5L2479.9,333.5z M2453,290.4v16.7h7.3c6.7,0,10.1-2.8,10.1-8.4
	c0-3-0.9-5.1-2.7-6.4c-1.8-1.3-4.7-1.9-8.6-1.9H2453z"/>
</svg>
