<?xml version="1.0" encoding="utf-8"?>
<!-- Generator: Adobe Illustrator 22.1.0, SVG Export Plug-In . SVG Version: 6.00 Build 0)  -->
<svg version="1.1" xmlns="http://www.w3.org/2000/svg" xmlns:xlink="http://www.w3.org/1999/xlink" x="0px" y="0px"
	 viewBox="0 0 922 1108" style="enable-background:new 0 0 922 1108;" xml:space="preserve">
<style type="text/css">
	.st0{fill:#000000;}
</style>
<g id="Layer_1">
	<g>
		<g>
			<g>
				<path class="st0" d="M110.9,921.1h16.4v4.2h-16.4v18.9h24.8v4.2h-42V898h42v4.2h-24.8V921.1z M106.3,921.1v-18.9h-8v18.9H106.3z
					 M106.3,944.3v-18.9h-8v18.9H106.3z"/>
				<path class="st0" d="M168.2,925.3H164v18.9h19.7v4.2h-36.9V898H164v23.1h4.2V925.3z M159.4,921.1v-18.9h-8v18.9H159.4z
					 M159.4,944.3v-18.9h-8v18.9H159.4z"/>
				<path class="st0" d="M211.4,921.1h16.4v4.2h-16.4v18.9h24.8v4.2h-42V898h42v4.2h-24.8V921.1z M206.8,921.1v-18.9h-8v18.9H206.8z
					 M206.8,944.3v-18.9h-8v18.9H206.8z"/>
				<path class="st0" d="M292.7,909.7l-3.9,2.2c-4-6.6-11.2-10.9-19.6-10.9c-11.8,0-21.5,8.9-22.5,20.2h8
					c1.1-6.7,7.2-11.7,14.5-11.7c5.3,0,10,2.6,12.6,6.6l-4,2.3c-1.7-2.8-5-4.7-8.6-4.7c-5.5,0-10.1,4.3-10.1,9.6s4.5,9.6,10.1,9.6
					c3.7,0,6.9-1.9,8.6-4.7l4,2.3c-2.6,4-7.3,6.6-12.6,6.6c-7.3,0-13.5-5-14.5-11.7h-8c1.1,11.3,10.7,20.2,22.5,20.2
					c8.4,0,15.6-4.4,19.6-10.9l3.9,2.2c-4.8,7.8-13.5,13-23.5,13c-15,0-27.3-11.9-27.3-26.5s12.2-26.5,27.3-26.5
					C279.2,896.7,287.9,901.9,292.7,909.7z"/>
				<path class="st0" d="M329.5,921.1h4.2v4.2h-4.2v23.1h-17.2v-23.1h-4.2v-4.2h4.2v-18.9H297V898h47.9v4.2h-15.3V921.1z
					 M324.9,921.1v-18.9h-8v18.9H324.9z M324.9,944.3v-18.9h-8v18.9H324.9z"/>
				<path class="st0" d="M380.2,898c10.6,0,19.2,8.1,19.2,18c0,9.8-8.4,17.7-18.7,17.9l17.7,14.5h-7L373.8,934h-0.4v14.5h-17.6V898
					H380.2z M368.7,902.2h-8.4v15.1l8.4,6.8V902.2z M360.3,923v6.8h8.3L360.3,923z M368.7,944.3V934h-8.4v10.3H368.7z M380.2,929.8
					c8,0,14.5-6.2,14.5-13.8c0-7.6-6.5-13.8-14.5-13.8h-6.9V928l2.2,1.8H380.2z"/>
				<path class="st0" d="M409.1,898h17.2v50.4h-17.2V898z M421.7,944.3v-42.1h-8v42.1H421.7z"/>
				<path class="st0" d="M486.4,909.7l-3.9,2.2c-4-6.6-11.2-10.9-19.6-10.9c-11.8,0-21.5,8.9-22.5,20.2h8
					c1.1-6.7,7.2-11.7,14.5-11.7c5.3,0,10,2.6,12.6,6.6l-4,2.3c-1.7-2.8-5-4.7-8.6-4.7c-5.5,0-10.1,4.3-10.1,9.6s4.5,9.6,10.1,9.6
					c3.7,0,6.9-1.9,8.6-4.7l4,2.3c-2.6,4-7.3,6.6-12.6,6.6c-7.3,0-13.5-5-14.5-11.7h-8c1.1,11.3,10.7,20.2,22.5,20.2
					c8.4,0,15.6-4.4,19.6-10.9l3.9,2.2c-4.8,7.8-13.5,13-23.5,13c-15,0-27.3-11.9-27.3-26.5s12.2-26.5,27.3-26.5
					C473,896.7,481.7,901.9,486.4,909.7z"/>
				<path class="st0" d="M563.3,914.1h-4.6c0-7.4-7.3-13.2-16.3-13.2c-9.1,0-16.4,5.8-16.4,13.2l0.1,0.9h16.3c11.6,0,21,7.6,21,17.4
					c0,9.7-9.4,17.4-21,17.4s-21-7.6-21-17.4h4.6c0,7.4,7.3,13.2,16.4,13.2c9,0,16.3-5.8,16.3-13.2v-0.9h-16.3
					c-11.6,0-21-7.6-21-17.4c0-9.7,9.4-17.4,21-17.4S563.3,904.4,563.3,914.1z M527.1,919.2c2.4,4.8,8.4,8.1,15.2,8.1h15.1
					c-2.4-4.8-8.3-8.1-15.1-8.1H527.1z"/>
				<path class="st0" d="M625.4,923.2c0,5.7-1.9,11-5,15.3l4,3.3v5.7l-6.9-5.7c-5,4.8-11.8,7.8-19.4,7.8c-15,0-27.3-11.9-27.3-26.5
					s12.2-26.5,27.3-26.5C613.2,896.7,625.4,908.6,625.4,923.2z M575.4,923.2c0,12.3,10.2,22.3,22.7,22.3c6.2,0,11.8-2.4,15.9-6.4
					l-6.4-5.3c-2.6,2-5.9,3.2-9.5,3.2c-8.1,0-14.7-6.2-14.7-13.8s6.6-13.8,14.7-13.8s14.8,6.2,14.8,13.8c0,2.7-0.9,5.3-2.3,7.3
					l6.3,5.2c2.4-3.6,3.9-7.9,3.9-12.5c0-12.3-10.2-22.3-22.7-22.3C585.6,901,575.4,910.9,575.4,923.2z M589.2,918.8
					c-0.7,1.3-1.2,2.9-1.2,4.5c0,5.3,4.5,9.6,10.1,9.6c2.2,0,4.3-0.7,6-1.9L589.2,918.8z M592.1,915.5l15,12.2
					c0.7-1.3,1.2-2.9,1.2-4.5c0-5.3-4.5-9.6-10.2-9.6C595.9,913.6,593.8,914.3,592.1,915.5z"/>
				<path class="st0" d="M676.7,929.4c0,11.2-9.4,20.4-21,20.4c-11.6,0-21-9.1-21-20.4V898h17.6v47.1c1.1,0.3,2.2,0.4,3.4,0.4
					c9,0,16.3-7.2,16.3-16.1V898h4.6V929.4z M639.4,929.4c0,6,3.4,11.3,8.4,14.1v-41.3h-8.4V929.4z"/>
				<path class="st0" d="M716.8,934h-10.9l-6.8,14.5h-5l14.7-31.5l-4.4-9.4l-19.1,40.9h-5l24.1-51.6l24,51.6h-5L716.8,934z
					 M711.3,922.4l-3.5,7.3h6.9L711.3,922.4z"/>
				<path class="st0" d="M760.3,898c10.6,0,19.2,8.1,19.2,18c0,9.8-8.4,17.7-18.7,17.9l17.7,14.5h-7L753.8,934h-0.4v14.5h-17.6V898
					H760.3z M748.7,902.2h-8.4v15.1l8.4,6.8V902.2z M740.3,923v6.8h8.3L740.3,923z M748.7,944.3V934h-8.4v10.3H748.7z M760.3,929.8
					c8,0,14.5-6.2,14.5-13.8c0-7.6-6.5-13.8-14.5-13.8h-6.9V928l2.2,1.8H760.3z"/>
				<path class="st0" d="M806.3,921.1h16.4v4.2h-16.4v18.9h24.8v4.2h-42V898h42v4.2h-24.8V921.1z M801.7,921.1v-18.9h-8v18.9H801.7z
					 M801.7,944.3v-18.9h-8v18.9H801.7z"/>
			</g>
			<g>
				<g>
					<path class="st0" d="M560.9,678.7c-13.8-8.3-27.9-15.1-32.1-28.8c-0.1-0.2-0.7-63.4-0.9-78.3c0-1.6-1.2-2.9-2.8-3.2l-24.2,4.9
						l-0.1-0.1l-0.3,0.1l-1.8-0.9c0,0,18.3-6.2,27.8-15.1c6-5.6,14.7-17.9,19-29.8c2.9-8.1,4.8-16.6,5.6-25.2l4.6-28.8
						c-1.1,0.4-3.7,1.4-7.1,2.2c-2.9,0.7-6.5,1.3-10.7,1.4c-0.2,0-0.4,0-0.6,0c-0.2,0-0.4,0-0.6,0c-0.3,0-0.6,0-0.9,0
						c-2.3-0.1-4.8-0.3-7.4-0.8c-0.9-0.2-1.5-1-1.3-1.9c0.1-0.5,0.4-0.9,0.8-1.1l0.1-0.1c1.7-0.9,4.5-2.7,7.3-4.6
						c6.8-4.4,12-10.8,15.1-18.3l5.5-13.2c-0.6-3.5-1-7-1.2-10.5c-10.4-2.6-18.6-8.5-24.1-12.9c-1.3-1.1-2.9-2.1-4.7-3
						c-0.3,3-1.8,5.7-4.2,7.6l-1.7-0.7l0.4-0.3c2.4-1.8,3.8-4.5,3.8-7.5c-2.6-1.2-5.4-2.2-8-2.8c1.3,0.6,2.2,1.9,2.2,3.5
						c0,2.1-1.7,3.8-3.8,3.8c-1.9,0-3.9-1.3-4.3-3c2.9,1.6,5-0.6,5-2.2c0-1.1-0.6-2-1.4-2.5c0,0-1.6-0.3-2.6-0.4c-0.4,0-0.7,0-1.1,0
						c-1.6,0-3.1,0.2-4.4,0.5c-0.3,0.9-0.4,1.9-0.4,2.8c0,2.2,0.7,4.3,2.1,6l0.5,0.5l-2.1,0.2c-1.5-2-2.4-4.3-2.4-6.8
						c0-0.8,0.1-1.6,0.3-2.4c-5.4,1.5-8.6,4.3-9.9,5.2c-0.5,0.3-0.9,0.4-1.4,0.3c-1.1,0.2-1.9-0.8-2.4-1.8c-0.4-0.8-0.1-1.7,0.6-2.2
						c8.9-5.7,17-7.7,23.9-7.5c15.5,0,25.6,10.2,27.3,11.7c1.3,1.1,4.8,1.4,7.9,1.4c2.6,0,4.7-0.2,4.7-0.2c0,0,0,0,0,0
						c0.2,0,0.4,0,0.5,0c0.2-6.1-0.1-14.3-2.1-23.1c-0.4-0.2-0.8-0.5-1.1-1c-0.1-0.1-6.3-10.6-13.4-14.1c-4.5-2.2-10.7-3.2-16-3.3
						c-3.1,0-5.9,0.4-7.8,1.1c-3.5,1.4-12.5,2.4-27.4,3.2c-0.2,0-0.4,0-0.6,0c-0.1,0-0.2,0-0.3,0c-1.5,0.1-2.9-0.6-3.8-1.7
						c-0.9-1.1-1.3-2.7-0.9-4.1l0.6-2.1c0.5-2,2.4-3.5,4.5-3.5c5.3,0,9.9-0.8,14.8-1.5c5.6-0.9,11.3-1.8,18.1-1.7
						c2.5,0,5.2,0.1,8.2,0.4c7.2,0.8,13,4.4,17.6,8.8c-7.6-13.2-20.8-25.4-43.7-31.5c-10.3-2.9-21.5-3.6-29.5-3.6
						c-4.6,0-8,0.2-9.4,0.3c0,0-0.1,0-0.1,0c-0.1,0-0.2,0-0.2,0c0,0-0.1,0-0.1,0c0,0,0,0-0.1,0c0,0,0,0-0.1,0c0,0-0.1,0-0.1,0
						c-0.1,0-0.2,0-0.2,0c0,0-0.1,0-0.1,0c-1.3-0.1-4.8-0.3-9.4-0.3c-8,0-19.2,0.7-29.5,3.6c-22.9,6.1-36.1,18.3-43.7,31.5
						c4.6-4.3,10.5-8,17.6-8.8c2.9-0.3,5.6-0.4,8.2-0.4c6.9-0.1,12.6,0.8,18.1,1.7c4.9,0.8,9.6,1.5,14.8,1.5c2.1,0,4,1.4,4.5,3.5
						l0.6,2.1c0.4,1.4,0,3-0.9,4.1c-0.9,1.1-2.4,1.8-3.8,1.7c-0.1,0-0.2,0-0.3,0c-0.2,0-0.4,0-0.6,0c-14.9-0.8-23.9-1.8-27.4-3.2
						c-1.9-0.7-4.6-1.1-7.8-1.1c-5.3,0-11.4,1.1-16,3.3c-7.2,3.5-13.4,13.9-13.4,14.1c-0.3,0.4-0.6,0.8-1.1,1
						c-2,8.8-2.3,17-2.1,23.1c0.1,0,2.6,0.2,5.1,0.2c3.1,0,6.6-0.3,7.9-1.4c1.7-1.5,11.8-11.7,27.3-11.7c7-0.1,15,1.8,23.9,7.5
						c0.7,0.5,1,1.4,0.6,2.2c-0.5,1-1.3,2-2.4,1.8c-0.4,0.1-0.8,0-1.4-0.3c-1.3-0.9-4.5-3.7-9.9-5.2c0.2,0.8,0.3,1.6,0.3,2.4
						c0,2.5-0.9,4.9-2.4,6.9l-2-0.3l0.5-0.5c1.4-1.7,2.1-3.8,2.1-6c0-1-0.1-1.9-0.4-2.8c-1.4-0.3-2.8-0.4-4.4-0.5
						c-0.4,0-0.7,0-1.1,0c-1,0-2.6,0.4-2.6,0.4c-0.9,0.5-1.4,1.5-1.4,2.5c0,1.5,1.1,2.7,2.7,2.9c1,0.2,2.1-0.6,2.3-0.8
						c-0.8,3.1-4.2,3-4.3,3c-2.1,0-3.8-1.7-3.8-3.8c0-1.5,0.9-2.9,2.2-3.5c-2.7,0.6-5.5,1.6-8,2.8c0.1,3,1.5,5.7,3.8,7.5l0.4,0.3
						l-1.6,0.8c-2.4-1.9-4.1-4.8-4.4-7.8c-1.8,0.9-3.4,2-4.7,3c-5.4,4.4-13.6,10.3-24.1,12.9c-0.2,3.5-0.6,7-1.2,10.5l5.5,13.2
						c3.1,7.5,8.3,13.9,15.1,18.3c2.9,1.9,5.7,3.6,7.3,4.6l0.1,0.1c0.4,0.2,0.7,0.6,0.8,1.1c0.2,0.9-0.5,1.7-1.3,1.9
						c-2.6,0.5-5,0.8-7.4,0.8c-0.3,0-0.6,0-0.9,0c-0.2,0-0.4,0-0.6,0c-0.2,0-0.4,0-0.6,0c-4.1,0-7.8-0.6-10.7-1.4
						c-3.4-0.8-6-1.7-7.1-2.2l4.6,28.8c0.8,8.6,2.6,17.1,5.6,25.2c4.3,11.9,13,24.2,19,29.8c9.5,8.9,27.8,15.1,27.8,15.1l-1.8,0.9
						l-0.3-0.1l-0.1,0.1l-24.2-4.9c-1.6,0.2-2.7,1.6-2.8,3.2c-0.2,14.9-0.9,78.1-0.9,78.3c-4.2,13.7-18.3,20.5-32.1,28.8
						c-10.6,6.4-24,9.4-35.4,11.5l134.1,134.1l134.1-134.1C584.9,688.1,571.4,685.1,560.9,678.7z M467.9,444.8
						c0.2-0.1,0.6-0.2,1.2-0.1c1-0.1,3,0.3,5,1.4c4.6,2.9,4.8,5.3,4.2,6.2c-0.2,0.3-0.9,0.8-2.2,0.7c-0.9,0.1-2.2-0.2-4.1-1.3
						c-2.3-1.3-4.5-4.1-4.5-4.1C466.8,446.7,467,445.5,467.9,444.8z M450.3,446c1.9-1.1,4-1.5,5-1.4c0.6,0,1.1,0,1.2,0.1
						c0.9,0.7,1.1,1.9,0.4,2.8c0,0-2.2,2.8-4.5,4.1c-1.9,1.1-3.2,1.4-4.1,1.3c-1.3,0.1-1.9-0.4-2.2-0.7
						C445.5,451.4,445.7,448.9,450.3,446z M422.7,503.8c-0.7-0.7-1-1.6-0.9-2.4c0-0.6,0.2-1.1,0.5-1.7c1.3-2.1,3.6-5.5,6.5-9.3
						c8-10.6,14.8-15.6,20.1-17.7c0,0,0.1,0,0.1,0c0.4-0.2,0.8-0.3,1.2-0.4c0.1,0,0.3-0.1,0.4-0.1c0.4-0.1,0.9-0.3,1.3-0.3
						c0.1,0,0.2,0,0.3-0.1c0.4-0.1,0.9-0.2,1.3-0.2c0,0,0,0,0,0c1-0.1,1.9-0.2,2.7-0.1c2.7,0,4.7,0.7,5.6,1.2
						c0.1,0.1,0.3,0.1,0.4,0.1c0.1,0,0.3-0.1,0.4-0.1c1-0.5,2.9-1.2,5.6-1.2c0.8,0,1.7,0,2.7,0.1c0,0,0,0,0,0
						c0.4,0.1,0.9,0.1,1.3,0.2c0.1,0,0.2,0,0.3,0.1c0.4,0.1,0.9,0.2,1.3,0.3c0.1,0,0.3,0.1,0.4,0.1c0.4,0.1,0.8,0.3,1.2,0.4
						c0,0,0.1,0,0.1,0c5.3,2.1,12.2,7.1,20.1,17.7c2.9,3.8,5.2,7.2,6.5,9.3c0.3,0.5,0.5,1.1,0.5,1.7c0.1,0.9-0.2,1.8-0.9,2.4
						c-1.6,1.6-4.6,3.9-9.5,5.4c-3.4,1.2-7.4,1.8-11.8,1.8c-0.8,0-1.5,0-2.3-0.1c-1,0-2,0-3-0.1c-6.8,0-10.3-0.4-11.9-0.6
						c-0.3,0-0.6-0.1-0.9-0.1c-0.3,0-0.6,0-0.9,0.1c-1.6,0.3-5.2,0.6-11.9,0.6c-1,0-2,0.1-3,0.1c-0.8,0-1.6,0.1-2.3,0.1
						c-4.4,0.1-8.4-0.6-11.8-1.8C427.3,507.7,424.3,505.4,422.7,503.8z M462.8,810.1L462.8,810.1L462.8,810.1l-0.3-0.3l-0.3,0.3l0,0
						l0,0l-63.9-63.9c0.3,0.1,0.5,0.1,0.8,0.2l-0.2-0.2c20.5,4.4,41.8,6.8,63.6,6.8c21.8,0,43.1-2.4,63.6-6.8l-0.2,0.2
						c0.3-0.1,0.5-0.1,0.8-0.2L462.8,810.1z"/>
				</g>
				<path class="st0" d="M441.4,498c4.4-0.8,15.1-2.6,20.5-2.6c0,0,0,0,0,0s0,0,0,0c0.1,0,0.2,0,0.3,0c0.1,0,0.2,0,0.3,0
					c0,0,0,0,0,0s0,0,0,0c5.3,0,16,1.8,20.5,2.6c0.4-0.2,0.5-0.7,0.2-1c-0.9-1.1-2.3-2.6-4.1-4.2c-4-3.5-9.9-7.3-17-7.5
					c-7,0.2-13,4-17,7.5c-1.8,1.6-3.2,3.2-4.1,4.2C440.9,497.3,441,497.8,441.4,498z"/>
				<path class="st0" d="M593.3,537.3c-0.6,4-3.3,17-14.8,22.6c-1,0.8-6.1,5.2-7.7,10.1c-5.5,16.6-21.4,26.4-37.7,27.9
					c0,9,0.1,24.7,0.2,36.4c74.7-28.7,127.8-101.1,127.8-185.9c0-109.8-88.9-198.9-198.7-199c-109.8,0.2-198.7,89.2-198.7,199
					c0,84.8,53.1,157.2,127.8,185.9c0.1-11.7,0.2-27.4,0.2-36.4c-16.3-1.4-32.2-11.3-37.7-27.9c-1.7-5-6.7-9.3-7.7-10.1
					c-11.6-5.7-14.2-18.6-14.8-22.6c-13.3-9.1-13-23.6-12.6-28c-4-4.7-8.2-14.8,0.7-25c9.1-10.4,21.2-31.7,23.8-36.5
					c-2.8-7.6-16.8-52.3,10.4-106.5c0.5-1.2,7.1-15.5,23.4-30c15.3-13.6,42.5-29.9,85-30.1c0,0,0,0,0.1,0s0,0,0.1,0
					c0.1,0,0.2,0,0.3,0c0.1,0,0.2,0,0.3,0c0,0,0,0,0.1,0s0,0,0.1,0c42.5,0.2,69.6,16.4,85,30.1c16.3,14.5,22.8,28.8,23.4,30
					c27.2,54.2,13.2,98.9,10.4,106.5c2.7,4.8,14.7,26.1,23.8,36.5c8.9,10.2,4.7,20.3,0.7,25C606.3,513.7,606.6,528.2,593.3,537.3z"
					/>
				<path class="st0" d="M369.8,421.8c3-0.9,6.3-2.5,9-5c-0.4,0-0.8,0-1.4,0c-2.3,0-6.7-0.4-7.9-2.5c0,0.8,0.1,1.7,0.1,2.4
					C369.8,418.4,369.8,420.1,369.8,421.8z"/>
				<g>
					<path class="st0" d="M819.5,424.9L462.2,67.6L104.9,424.9l-21,21l16.1,16.1l224.7,224.7c3.7-0.6,7.7-1.4,11.8-2.3L193.5,541.4
						l0,0l-1-1c-10.1-29.5-15.2-60.4-15.2-92c0-34.5,6.1-68,18-99.9l1-1l0,0l165.3-165.3c0,0,0,0,0,0l0.4-0.4
						c31.9-12,65.4-18,99.9-18c0.1,0,0.2,0,0.3,0s0.2,0,0.3,0c34.5,0,68,6.1,99.9,18l0.4,0.4l0,0L728,347.5l0,0l1,1
						c12,31.9,18,65.4,18,99.9c0,31.7-5.1,62.5-15.2,92l-1,1l0,0L588,684.3c4.1,0.9,8.1,1.7,11.8,2.3l224.7-224.7l16.1-16.1
						L819.5,424.9z M165.4,512.6L98,445.9l68.8-68.2c-5.4,22.7-8.3,46.4-8.3,70.7C158.6,470.4,161,491.9,165.4,512.6z M532.6,152.1
						c-22.5-5.4-46-8.2-70.1-8.3c-24.1,0-47.6,2.9-70.1,8.3l0.2-0.2c-0.3,0.1-0.5,0.1-0.8,0.2l70.4-70.4l0,0l0,0l0.3,0.3l0.3-0.3
						l0,0l0,0l70.4,70.4c-0.3-0.1-0.5-0.1-0.8-0.2L532.6,152.1z M759.6,512.6c4.4-20.7,6.8-42.2,6.8-64.2c0-24.4-2.9-48-8.3-70.7
						l68.8,68.2L759.6,512.6z"/>
				</g>
				<path class="st0" d="M832.5,379.4V75.6h0H528.7L461.8,8.7l-66.9,66.9h-303h0v303l-67,67l67,67v303.5h0h303.5l66.4,66.4
					l66.4-66.4h304.3h0V511.9l66.3-66.3L832.5,379.4z M746.5,161.6v131.8L614.7,161.6H746.5z M177.9,161.6h131l-131,131V161.6z
					 M177.9,730.2V598.7l131.5,131.5H177.9z M746.5,730.2H614.2l132.3-132.3V730.2z M462.2,866.6L462.2,866.6L462.2,866.6
					L41.5,445.9L462.2,25.1l0,0l0,0l420.7,420.7L462.2,866.6z"/>
				<path class="st0" d="M545.5,416.8c2.7,2.5,6,4.1,9,5c0-1.7,0.1-3.4,0.2-5.1c0-0.7,0.1-1.5,0.1-2.3c-1.2,2.1-5.6,2.3-7.9,2.3
					C546.4,416.8,545.9,416.8,545.5,416.8z"/>
			</g>
		</g>
		<g>
			<path class="st0" d="M277.2,1012h-9.4l-2.5,7h-1.8l8.2-21.8h1.8l8.1,21.8h-1.9L277.2,1012z M268.3,1010.4h8.3l-4.1-11.3
				L268.3,1010.4z"/>
			<path class="st0" d="M307.3,1006.4l8.2-9.3h4.5l-9.2,10.3l10.2,11.5h-5.2l-8.5-9.8v9.8h-4v-21.8h4V1006.4z"/>
			<path class="st0" d="M343.7,997.2l-0.7,3.5h-10.3v5.4h10.1l-0.7,3.5h-9.5v5.9h11l-0.7,3.5h-14.3v-21.8H343.7z"/>
			<path class="st0" d="M358.7,1018.9v-9l-7.7-12.7h4.4l5.4,9.4l5.3-9.4h4.3l-7.6,12.7v9H358.7z"/>
			<path class="st0" d="M399.1,997.2h3.8l-4.7,21.8h-4.3l-3.9-16.1l-4,16.1h-4.4l-4.7-21.8h4.1l3,16.6l4.1-16.6h3.7l4.1,16.6
				L399.1,997.2z"/>
			<path class="st0" d="M419.6,1019.5c-1.9,0-3.4-0.2-4.6-0.6c-1.2-0.4-2.1-1-2.8-1.8c-0.7-0.8-1.2-1.9-1.4-3.1
				c-0.3-1.3-0.4-2.7-0.4-4.4v-3c0-1.6,0.1-3,0.4-4.3c0.3-1.2,0.7-2.3,1.4-3.1c0.7-0.8,1.6-1.5,2.8-1.9c1.2-0.4,2.7-0.7,4.6-0.7
				c1.9,0,3.4,0.2,4.6,0.6c1.2,0.4,2.2,1,2.9,1.8c0.7,0.8,1.2,1.9,1.4,3.1c0.3,1.3,0.4,2.7,0.4,4.4v3c0,1.6-0.1,3-0.4,4.3
				c-0.3,1.2-0.7,2.3-1.4,3.1c-0.7,0.8-1.6,1.5-2.8,1.9C423.1,1019.3,421.5,1019.5,419.6,1019.5z M419.6,1016c1.1,0,1.9-0.1,2.6-0.2
				c0.7-0.2,1.2-0.5,1.6-0.9c0.4-0.5,0.7-1.1,0.8-2c0.1-0.9,0.2-2,0.2-3.4v-2.8c0-1.4-0.1-2.5-0.2-3.4c-0.1-0.9-0.4-1.5-0.8-2
				c-0.4-0.5-0.9-0.8-1.6-1c-0.7-0.2-1.5-0.2-2.6-0.2c-1.1,0-1.9,0.1-2.6,0.2c-0.7,0.2-1.2,0.5-1.6,0.9c-0.4,0.5-0.6,1.1-0.8,2
				c-0.1,0.9-0.2,2-0.2,3.4v2.8c0,1.4,0.1,2.5,0.2,3.4c0.1,0.9,0.4,1.5,0.8,2c0.4,0.5,0.9,0.8,1.6,1
				C417.7,1016,418.6,1016,419.6,1016z"/>
			<path class="st0" d="M446.2,1010.9h-4.1v8h-3.9v-21.8h8.2c2.6,0,4.6,0.5,5.8,1.5c1.2,1,1.8,2.6,1.8,4.9v0.9c0,1.6-0.3,2.9-1,3.8
				c-0.7,0.9-1.7,1.6-3,2l4.9,8.6h-4.4L446.2,1010.9z M450,1003.9c0-0.7-0.1-1.3-0.2-1.7c-0.1-0.4-0.3-0.8-0.6-1
				c-0.3-0.2-0.7-0.4-1.2-0.5c-0.5-0.1-1.1-0.1-1.8-0.1h-4.2v6.8h4.2c0.7,0,1.3,0,1.8-0.1s0.9-0.3,1.2-0.5c0.3-0.2,0.5-0.6,0.6-1
				c0.1-0.4,0.2-1,0.2-1.7V1003.9z"/>
			<path class="st0" d="M463.2,997.2h8.1c1.8,0,3.3,0.2,4.5,0.6c1.2,0.4,2.1,1,2.8,1.8c0.7,0.8,1.2,1.8,1.5,3
				c0.3,1.2,0.4,2.6,0.4,4.2v2.5c0,1.6-0.1,3-0.4,4.2c-0.3,1.2-0.8,2.2-1.5,3c-0.7,0.8-1.6,1.4-2.8,1.8c-1.2,0.4-2.6,0.6-4.4,0.6
				h-8.2V997.2z M467.1,1015.4h4c1,0,1.8-0.1,2.5-0.3c0.7-0.2,1.2-0.5,1.6-0.9c0.4-0.5,0.7-1.1,0.9-1.9s0.3-1.9,0.3-3.1v-2.2
				c0-1.3-0.1-2.3-0.3-3.1c-0.2-0.8-0.5-1.5-0.9-1.9c-0.4-0.5-1-0.8-1.6-0.9c-0.7-0.2-1.5-0.2-2.5-0.2h-4V1015.4z"/>
			<path class="st0" d="M499.1,1006.4c1,0.2,1.8,0.4,2.5,0.7c0.7,0.3,1.2,0.7,1.6,1.2c0.4,0.5,0.7,1.1,0.9,1.7
				c0.2,0.7,0.3,1.4,0.3,2.3v0.5c0,1-0.1,1.9-0.4,2.7c-0.3,0.8-0.7,1.4-1.3,1.9c-0.6,0.5-1.5,0.9-2.5,1.1c-1,0.2-2.3,0.4-3.9,0.4
				c-0.7,0-1.7,0-2.9,0c-1.2,0-2.7,0-4.5-0.1l0.6-3.5c0.8,0,1.5,0,2.1,0c0.6,0,1.2,0,1.7,0c0.5,0,1.1,0,1.5,0s1,0,1.4,0
				c0.8,0,1.5,0,2-0.1c0.5-0.1,0.9-0.2,1.2-0.4c0.3-0.2,0.5-0.5,0.6-0.8c0.1-0.3,0.2-0.8,0.2-1.3c0-0.4,0-0.8-0.1-1.1
				s-0.2-0.6-0.4-0.8c-0.2-0.2-0.5-0.4-0.8-0.5c-0.3-0.1-0.8-0.2-1.4-0.4l-3.6-0.6c-1.1-0.2-1.9-0.4-2.6-0.8
				c-0.7-0.3-1.2-0.7-1.6-1.2c-0.4-0.5-0.7-1-0.8-1.7c-0.1-0.7-0.2-1.4-0.2-2.2v-0.6c0-0.9,0.1-1.7,0.4-2.5c0.3-0.7,0.7-1.3,1.3-1.8
				c0.6-0.5,1.4-0.9,2.4-1.2c1-0.3,2.2-0.4,3.7-0.4c0.6,0,1.1,0,1.5,0s1,0,1.5,0c0.5,0,1.1,0,1.7,0s1.4,0,2.2,0l-0.6,3.5
				c-1.5,0-2.7-0.1-3.7-0.1s-2,0-2.9,0c-0.8,0-1.4,0-1.8,0.1c-0.5,0.1-0.8,0.2-1.1,0.4c-0.3,0.2-0.5,0.5-0.6,0.8
				c-0.1,0.3-0.2,0.7-0.2,1.2c0,0.4,0,0.8,0.1,1.1c0.1,0.3,0.2,0.5,0.4,0.7c0.2,0.2,0.4,0.4,0.8,0.5c0.3,0.1,0.8,0.2,1.3,0.3
				L499.1,1006.4z"/>
			<path class="st0" d="M534.9,1007.3c1.6,0.3,2.8,0.8,3.5,1.7c0.7,0.8,1.1,2.1,1.1,3.8v0.4c0,1-0.1,1.9-0.4,2.6s-0.7,1.3-1.3,1.8
				c-0.6,0.5-1.4,0.8-2.4,1.1c-1,0.2-2.1,0.3-3.5,0.3c-0.8,0-1.8,0-2.8,0c-1,0-2.3,0-3.8-0.1l0.3-1.7c1.4,0,2.5,0.1,3.5,0.1
				c1,0,1.9,0,2.8,0c1.1,0,2.1-0.1,2.9-0.2c0.8-0.1,1.4-0.4,1.8-0.7c0.4-0.3,0.8-0.8,0.9-1.4c0.2-0.6,0.3-1.3,0.3-2.1
				c0-0.6-0.1-1.1-0.2-1.6c-0.1-0.4-0.3-0.8-0.6-1.1c-0.3-0.3-0.6-0.6-1.1-0.8c-0.5-0.2-1.1-0.4-1.8-0.5l-4-0.7
				c-0.9-0.1-1.6-0.4-2.2-0.6c-0.6-0.3-1.1-0.6-1.5-1.1c-0.4-0.4-0.6-1-0.8-1.5c-0.2-0.6-0.2-1.3-0.2-2.1v-0.4
				c0-0.8,0.1-1.6,0.4-2.2c0.2-0.7,0.7-1.2,1.2-1.7c0.6-0.5,1.3-0.8,2.2-1.1c0.9-0.3,2.1-0.4,3.4-0.4c0.5,0,0.9,0,1.3,0
				c0.4,0,0.8,0,1.3,0c0.5,0,1,0,1.6,0c0.6,0,1.3,0,2.1,0l-0.4,1.7c-0.7,0-1.4,0-2,0c-0.6,0-1.1,0-1.6,0s-0.9,0-1.3,0s-0.8,0-1.1,0
				c-1,0-1.9,0.1-2.6,0.2s-1.3,0.4-1.7,0.7c-0.4,0.3-0.7,0.7-0.9,1.2s-0.3,1.1-0.3,1.8c0,0.6,0,1.1,0.1,1.5c0.1,0.4,0.3,0.8,0.5,1.1
				c0.3,0.3,0.6,0.6,1.1,0.8c0.5,0.2,1,0.4,1.7,0.5L534.9,1007.3z"/>
			<path class="st0" d="M564.4,997.2l-0.4,1.7h-7.2v20.1h-1.7v-20.1h-7.5l0.4-1.7H564.4z"/>
			<path class="st0" d="M581,1019.5c-1.5,0-2.8-0.2-3.8-0.5c-1-0.3-1.8-0.9-2.4-1.6c-0.6-0.7-1-1.6-1.2-2.7
				c-0.2-1.1-0.3-2.4-0.3-3.8v-13.7h1.7v13.7c0,1.4,0.1,2.5,0.3,3.4c0.2,0.9,0.5,1.6,1,2.2c0.5,0.5,1.1,0.9,1.8,1.1
				c0.8,0.2,1.7,0.3,2.8,0.3c1.2,0,2.1-0.1,2.9-0.3c0.8-0.2,1.4-0.6,1.8-1.2c0.5-0.6,0.8-1.3,0.9-2.2c0.2-0.9,0.3-2,0.3-3.4v-13.7
				h1.7v13.7c0,1.5-0.1,2.9-0.4,4c-0.3,1.1-0.7,2-1.3,2.7c-0.6,0.7-1.4,1.2-2.4,1.5C583.7,1019.3,582.5,1019.5,581,1019.5z"/>
			<path class="st0" d="M599.2,997.2h6.7c1.7,0,3.1,0.2,4.3,0.6c1.2,0.4,2.1,1,2.8,1.8c0.7,0.8,1.2,1.8,1.5,3
				c0.3,1.2,0.5,2.7,0.5,4.3v2.4c0,1.7-0.2,3.1-0.5,4.3c-0.3,1.2-0.8,2.2-1.5,3c-0.7,0.8-1.6,1.4-2.8,1.8c-1.2,0.4-2.6,0.6-4.3,0.6
				h-6.7V997.2z M601,1017.3h5c1.4,0,2.5-0.1,3.5-0.4c0.9-0.3,1.7-0.7,2.2-1.4s1-1.5,1.2-2.5c0.2-1,0.4-2.3,0.4-3.8v-2.3
				c0-1.5-0.1-2.7-0.4-3.8c-0.2-1-0.6-1.9-1.2-2.5c-0.6-0.6-1.3-1.1-2.2-1.4c-0.9-0.3-2.1-0.4-3.5-0.4h-5V1017.3z"/>
			<path class="st0" d="M626.9,997.2v21.8h-1.7v-21.8H626.9z"/>
			<path class="st0" d="M645.5,1019.5c-1.6,0-2.9-0.2-4-0.5c-1.1-0.4-2-0.9-2.6-1.7c-0.7-0.8-1.1-1.7-1.4-2.9
				c-0.3-1.2-0.4-2.5-0.4-4.1v-4.5c0-1.5,0.1-2.9,0.4-4.1c0.3-1.2,0.8-2.1,1.4-2.9c0.7-0.8,1.5-1.3,2.6-1.7c1.1-0.4,2.4-0.6,4-0.6
				c1.6,0,2.9,0.2,4,0.5c1.1,0.4,2,0.9,2.6,1.7c0.7,0.8,1.1,1.7,1.4,2.9c0.3,1.2,0.4,2.5,0.4,4.1v4.5c0,1.6-0.1,2.9-0.4,4.1
				c-0.3,1.2-0.8,2.1-1.4,2.9c-0.7,0.8-1.6,1.3-2.6,1.7C648.5,1019.3,647.1,1019.5,645.5,1019.5z M645.5,1017.9
				c1.3,0,2.3-0.1,3.2-0.4c0.9-0.2,1.6-0.7,2.1-1.3c0.5-0.6,0.9-1.4,1.1-2.4c0.2-1,0.3-2.2,0.3-3.6v-4.4c0-1.4-0.1-2.7-0.3-3.6
				c-0.2-1-0.6-1.7-1.1-2.3c-0.5-0.6-1.2-1-2.1-1.3c-0.9-0.3-1.9-0.4-3.2-0.4c-1.3,0-2.3,0.1-3.2,0.4c-0.9,0.2-1.5,0.7-2.1,1.3
				c-0.5,0.6-0.9,1.4-1.1,2.4c-0.2,1-0.3,2.2-0.3,3.6v4.4c0,1.4,0.1,2.7,0.3,3.6c0.2,1,0.6,1.7,1.1,2.3c0.5,0.6,1.2,1,2.1,1.3
				C643.3,1017.7,644.3,1017.9,645.5,1017.9z"/>
		</g>
	</g>
</g>
<g id="Layer_2">
</g>
</svg>
