<?xml version="1.0" encoding="UTF-8" standalone="no"?>
<!-- Created with Inkscape (http://www.inkscape.org/) -->
<svg xmlns:rdf="http://www.w3.org/1999/02/22-rdf-syntax-ns#" xmlns="http://www.w3.org/2000/svg" height="93.5246" width="276.675" version="1.1" xmlns:cc="http://creativecommons.org/ns#" xmlns:dc="http://purl.org/dc/elements/1.1/">
 <metadata>
  <rdf:RDF>
   <cc:Work rdf:about="">
    <dc:format>image/svg+xml</dc:format>
    <dc:type rdf:resource="http://purl.org/dc/dcmitype/StillImage"/>
    <dc:title/>
   </cc:Work>
  </rdf:RDF>
 </metadata>
 <g transform="translate(-620.22515,-657.55897)">
  <g transform="matrix(2.2797596,0,0,2.2797596,625.28453,662.61315)" fill="#000">
   <path d="m109.129,28.0778,0.74329,0c0.37544,0,0.78881,0.07585,0.78881,0.553679,0,0.568847-0.45129,0.591601-0.94808,0.591601h-0.58402v-1.14528zm-0.55747,3.14762,0.55747,0,0-1.54727,0.59539,0,0.97842,1.54727,0.60298,0-1.03151-1.59277c0.53472-0.05688,0.94808-0.32614,0.94808-0.978419,0-0.693994-0.40199-1.03151-1.25905-1.03151h-1.39178v3.6027zm-1.2818-1.73309c0-1.47521,1.10356-2.61291,2.54464-2.61291,1.42591,0,2.52948,1.1377,2.52948,2.61291,0,1.50555-1.10357,2.64325-2.52948,2.64325-1.44108,0-2.54464-1.1377-2.54464-2.64325m-0.56127,0c0,1.77101,1.41833,3.09453,3.10591,3.09453,1.68,0,3.09074-1.32352,3.09074-3.09453,0-1.74067-1.41074-3.06799-3.09074-3.06799-1.68758,0-3.10591,1.32731-3.10591,3.06799" fill-rule="evenodd"/>
   <path d="m23.1967,16.617c0,1.76343-1.4297,3.19692-3.19692,3.19692s-3.19692-1.4335-3.19692-3.19692c0-1.76343,1.4297-3.19692,3.19692-3.19692s3.19692,1.4335,3.19692,3.19692" fill-rule="nonzero"/>
   <path d="m100.139,24.5862c0.10998-0.166862,0.21237-0.356478,0.30339-0.561263,0.50437-0.982211,1.53968-1.63828,2.7153-1.63828,1.6762,0,3.03385,1.35765,3.03385,3.03386,0,0.428532-0.0872,0.826726-0.2465,1.19458l-0.0834,0.182032c-1.67621,3.44722-5.22202,5.79087-9.24188,5.79087-5.58229,0-10.1065-4.52424-10.1065-10.1065,0-5.58229,4.52424-10.1065,10.1065-10.1065h0.4448c1.66104,0.07205,3.22726,0.546094,4.60387,1.32731v-9.70078h6.00704v13.6713c0,1.58519-1.39937,3.27656-3.23106,3.27656-2.0706,0-3.64062-0.667448-4.85796-1.69896-0.697786-0.542302-1.57381-0.868441-2.52189-0.868441h-0.443702c-2.26401,0-4.0995,1.83927-4.0995,4.0995,0,2.26401,1.83548,4.10329,4.0995,4.10329,1.49038,0,2.80252-0.803972,3.51927-1.99855" fill-rule="nonzero"/>
   <path d="m78.9116,22.4834c0-2.26401-1.83548-4.0995-4.0995-4.0995-2.26401,0-4.0995,1.83548-4.0995,4.0995,0,2.26401,1.83548,4.0995,4.0995,4.0995,2.26401,0,4.0995-1.83548,4.0995-4.0995m-14.206,0c0-5.58229,4.52424-10.1065,10.1065-10.1065,5.58229,0,10.1065,4.52424,10.1065,10.1065,0,5.58229-4.52424,10.1065-10.1065,10.1065-5.58229,0-10.1065-4.52424-10.1065-10.1065" fill-rule="nonzero"/>
   <path d="m52.489,18.3699c-0.504378,0-0.93291,0.329932-1.08081,0.788802l-2.41571,8.32793c-0.872233,2.95042-3.58374,5.10067-6.81859,5.10067-3.23106,0-5.94256-2.15024-6.8148-5.10067l-2.41571-8.32793c-0.1479-0.45887-0.576432-0.788802-1.08081-0.788802-0.504379,0-0.936703,0.329932-1.0884,0.788802l-2.41191,8.32793c-0.872234,2.95042-3.6065,5.10067-6.83755,5.10067h-1.6762v-5.99186h1.69517c0.500586,0,0.921533-0.32614,1.06943-0.78501l2.41571-8.33172c0.872233-2.94663,3.59891-5.10067,6.83376-5.10067s5.95773,2.15404,6.82996,5.10067l2.41571,8.33172c0.147901,0.45887,0.568848,0.78501,1.06564,0.78501,0.500586,0,0.921533-0.32614,1.06943-0.78501l2.41571-8.33172c0.872234-2.94663,3.59512-5.10067,6.82997-5.10067s5.96152,2.15404,6.83376,5.10067l2.41571,8.33172c0.1479,0.45887,0.568848,0.78501,1.06564,0.78501h1.69896v5.99186h-1.6762c-3.23485,0-5.96532-2.15024-6.83755-5.10067l-2.41571-8.32793c-0.144108-0.45887-0.580225-0.788802-1.0846-0.788802" fill-rule="nonzero"/>
   <path d="m19.2201,10.007c-2.26401,0-4.0995,1.83548-4.0995,4.0995v18.48h-6.00704v-12.7687h-5.11584v-5.98807h5.11963c0.1479-5.45336,4.61525-9.8297,10.1028-9.8297h5.99566v6.00704h-5.99571z" fill-rule="nonzero"/>
  </g>
 </g>
</svg>
