<?xml version="1.0" encoding="utf-8"?>
<!-- Generator: Adobe Illustrator 21.0.2, SVG Export Plug-In . SVG Version: 6.00 Build 0)  -->
<svg version="1.1"
	 id="Layer_1" xmlns:cc="http://creativecommons.org/ns#" xmlns:dc="http://purl.org/dc/elements/1.1/" xmlns:rdf="http://www.w3.org/1999/02/22-rdf-syntax-ns#"
	 xmlns="http://www.w3.org/2000/svg" xmlns:xlink="http://www.w3.org/1999/xlink" x="0px" y="0px" viewBox="0 0 276.7 93.5"
	 style="enable-background:new 0 0 276.7 93.5;" xml:space="preserve">
<style type="text/css">
	.st0{fill:#797979;}
</style>
<g transform="translate(-620.22515,-657.55897)">
	<g transform="matrix(2.2797596,0,0,2.2797596,625.28453,662.61315)">
		<path class="st0" d="M109.1,28.1h0.7c0.4,0,0.8,0.1,0.8,0.6c0,0.6-0.5,0.6-0.9,0.6h-0.6C109.1,29.2,109.1,28.1,109.1,28.1z
			 M108.6,31.2h0.6v-1.5h0.6l1,1.5h0.6l-1-1.6c0.5-0.1,0.9-0.3,0.9-1c0-0.7-0.4-1-1.3-1h-1.4L108.6,31.2L108.6,31.2z M107.3,29.5
			c0-1.5,1.1-2.6,2.5-2.6c1.4,0,2.5,1.1,2.5,2.6c0,1.5-1.1,2.6-2.5,2.6C108.4,32.1,107.3,31,107.3,29.5 M106.7,29.5
			c0,1.8,1.4,3.1,3.1,3.1c1.7,0,3.1-1.3,3.1-3.1c0-1.7-1.4-3.1-3.1-3.1C108.1,26.4,106.7,27.8,106.7,29.5"/>
		<path class="st0" d="M23.2,16.6c0,1.8-1.4,3.2-3.2,3.2c-1.8,0-3.2-1.4-3.2-3.2c0-1.8,1.4-3.2,3.2-3.2
			C21.8,13.4,23.2,14.9,23.2,16.6"/>
		<path class="st0" d="M100.1,24.6c0.1-0.2,0.2-0.4,0.3-0.6c0.5-1,1.5-1.6,2.7-1.6c1.7,0,3,1.4,3,3c0,0.4-0.1,0.8-0.2,1.2l-0.1,0.2
			c-1.7,3.4-5.2,5.8-9.2,5.8c-5.6,0-10.1-4.5-10.1-10.1c0-5.6,4.5-10.1,10.1-10.1h0.4c1.7,0.1,3.2,0.5,4.6,1.3V4h6v13.7
			c0,1.6-1.4,3.3-3.2,3.3c-2.1,0-3.6-0.7-4.9-1.7c-0.7-0.5-1.6-0.9-2.5-0.9h-0.4c-2.3,0-4.1,1.8-4.1,4.1c0,2.3,1.8,4.1,4.1,4.1
			C98.1,26.6,99.4,25.8,100.1,24.6"/>
		<path class="st0" d="M78.9,22.5c0-2.3-1.8-4.1-4.1-4.1c-2.3,0-4.1,1.8-4.1,4.1c0,2.3,1.8,4.1,4.1,4.1
			C77.1,26.6,78.9,24.7,78.9,22.5 M64.7,22.5c0-5.6,4.5-10.1,10.1-10.1c5.6,0,10.1,4.5,10.1,10.1c0,5.6-4.5,10.1-10.1,10.1
			C69.2,32.6,64.7,28.1,64.7,22.5"/>
		<path class="st0" d="M52.5,18.4c-0.5,0-0.9,0.3-1.1,0.8L49,27.5c-0.9,3-3.6,5.1-6.8,5.1c-3.2,0-5.9-2.2-6.8-5.1l-2.4-8.3
			c-0.1-0.5-0.6-0.8-1.1-0.8c-0.5,0-0.9,0.3-1.1,0.8l-2.4,8.3c-0.9,3-3.6,5.1-6.8,5.1h-1.7v-6h1.7c0.5,0,0.9-0.3,1.1-0.8l2.4-8.3
			c0.9-2.9,3.6-5.1,6.8-5.1c3.2,0,6,2.2,6.8,5.1l2.4,8.3c0.1,0.5,0.6,0.8,1.1,0.8c0.5,0,0.9-0.3,1.1-0.8l2.4-8.3
			c0.9-2.9,3.6-5.1,6.8-5.1s6,2.2,6.8,5.1l2.4,8.3c0.1,0.5,0.6,0.8,1.1,0.8h1.7v6h-1.7c-3.2,0-6-2.2-6.8-5.1l-2.4-8.3
			C53.4,18.7,53,18.4,52.5,18.4"/>
		<path class="st0" d="M19.2,10c-2.3,0-4.1,1.8-4.1,4.1v18.5h-6V19.8H4v-6h5.1C9.3,8.4,13.7,4,19.2,4h6v6L19.2,10L19.2,10z"/>
	</g>
</g>
</svg>
