<?xml version="1.0" encoding="utf-8"?>
<!-- Generator: Adobe Illustrator 21.0.2, SVG Export Plug-In . SVG Version: 6.00 Build 0)  -->
<svg version="1.1"
	 id="svg2" xmlns:cc="http://creativecommons.org/ns#" xmlns:dc="http://purl.org/dc/elements/1.1/" xmlns:rdf="http://www.w3.org/1999/02/22-rdf-syntax-ns#" xmlns:svg="http://www.w3.org/2000/svg"
	 xmlns="http://www.w3.org/2000/svg" xmlns:xlink="http://www.w3.org/1999/xlink" x="0px" y="0px" viewBox="0 0 1357.3 562.5"
	 style="enable-background:new 0 0 1357.3 562.5;" xml:space="preserve">
<style type="text/css">
	.st0{fill:#797979;}
</style>
<g id="g10" transform="matrix(1.25,0,0,-1.25,0,562.5)">
	<g id="g12" transform="scale(0.1,0.1)">
		<path id="path14" class="st0" d="M1475.1,1979.8c25.1-91.7,64.6-174.1,118.4-247.4c53.8-73.3,122.8-132.2,207.2-176.8
			c84.3-44.5,184.7-66.7,301.4-66.7c116.6,0,217,22.2,301.4,66.7c84.3,44.6,153.3,103.4,207.2,176.8
			c53.8,73.3,93.2,155.8,118.4,247.4c25.1,91.7,37.7,184.6,37.7,278.9s-12.6,187.1-37.7,278.8c-25.1,91.7-64.6,174.1-118.4,247.5
			c-53.9,73.3-122.9,132.2-207.2,176.7c-84.3,44.5-184.8,66.8-301.4,66.8c-116.7,0-217.1-22.3-301.3-66.8
			c-84.3-44.5-153.4-103.4-207.2-176.7c-53.8-73.4-93.3-155.8-118.4-247.5c-25.1-91.7-37.6-184.5-37.6-278.8
			S1450,2071.5,1475.1,1979.8L1475.1,1979.8z M1240.7,2626.9c38.5,117.7,96.3,221.9,173.3,312.6c77,90.7,172.9,163.1,287.5,217.1
			c114.6,54,248.1,81.1,400.5,81.1c152.3,0,285.8-27.1,400.4-81.1c114.6-54,210.5-126.4,287.5-217.1
			c77-90.7,134.8-194.9,173.3-312.6c38.5-117.7,57.8-240.2,57.8-367.5c0-127.3-19.3-249.9-57.8-367.5
			c-38.5-117.7-96.3-221.9-173.3-312.6c-77-90.7-172.9-162.6-287.5-215.8c-114.6-53.1-248.1-79.8-400.4-79.8
			c-152.3,0-285.8,26.6-400.5,79.8c-114.6,53.2-210.5,125.1-287.5,215.8c-77,90.7-134.8,194.9-173.3,312.6
			c-38.5,117.7-57.8,240.2-57.8,367.5C1182.9,2386.7,1202.2,2509.2,1240.7,2626.9"/>
		<path id="path16" class="st0" d="M4116.7,2091.9c-14.9,52.9-37.6,100.1-68.1,141.6c-30.6,41.4-69.8,74.4-117.5,99
			c-47.9,24.6-103.8,36.8-168,36.8c-67.4,0-124.6-13.1-171.6-39.2c-47-26.1-85.4-60.2-115.2-102.4c-29.8-42.2-51.3-90.2-64.6-143.9
			c-13.3-53.7-19.9-108.2-19.9-163.4c0-58.3,7-114.7,21.1-169.2c14.1-54.5,36.4-102.4,67-143.9c30.5-41.4,70.1-74.8,118.7-100.1
			c48.6-25.3,107.4-38,176.3-38c68.9,0,126.5,13,172.7,39.1c46.2,26.1,83.5,60.6,111.7,103.6c28.2,42.9,48.5,92,61.1,147.3
			c12.5,55.3,18.8,112,18.8,170.4C4139,1984.8,4131.6,2038.9,4116.7,2091.9L4116.7,2091.9z M3399.7,2515.2v-161.4h4
			c33,66.1,84.8,114.1,155.5,144.1c70.7,30,148.4,45,233.3,45c94.2,0,176.2-16.9,246.2-50.7c69.9-33.8,128-79.4,174.3-137
			c46.3-57.6,81.2-124,104.9-199.2c23.5-75.2,35.4-155.1,35.4-239.5s-11.4-164.3-34.1-239.5c-22.8-75.2-57.3-140.9-103.6-196.9
			c-46.3-56-104.5-100.2-174.3-132.4c-69.9-32.2-151.2-48.3-243.9-48.3c-29.9,0-63.3,3.1-100.1,9.2c-36.9,6.2-73.4,16.1-109.5,30
			c-36.1,13.8-70.3,32.7-102.5,56.5c-32.2,23.8-59.3,53.3-81.3,88.8h-4V869.2h-202v1646H3399.7"/>
		<path id="path18" class="st0" d="M5334.5,2164.7c-18,41.3-42.3,77-72.9,106.8c-30.6,29.9-66.7,53.6-108.3,71.2
			c-41.6,17.6-87.5,26.5-137.7,26.5c-51.8,0-98.5-8.8-140-26.5c-41.6-17.6-77.3-41.8-107-72.4c-29.8-30.6-53.3-66.3-70.6-106.9
			c-17.3-40.6-27.5-83.9-30.6-129.8h698.9C5363.1,2079.7,5352.5,2123.3,5334.5,2164.7L5334.5,2164.7z M5383.4,1400.7
			c-91.3-67.5-206.1-101.2-344.6-101.2c-97.6,0-182.2,15.3-253.8,46c-71.6,30.7-131.9,73.7-180.7,129
			c-48.8,55.3-85.4,121.3-109.8,198c-24.4,76.8-38.1,160.4-41.3,251c0,90.5,14.1,173.4,42.5,248.7c28.3,75.2,68.1,140.5,119.3,195.8
			c51.2,55.3,111.9,98.2,181.9,128.9c70.1,30.7,146.9,46.1,230.4,46.1c108.7,0,198.8-21.9,270.5-65.8
			c71.7-43.9,129.2-99.6,172.5-167.3c43.3-67.7,73.3-141.6,89.8-221.5c16.5-80,23.2-156.1,20.1-228.4h-913
			c-1.6-52.1,4.7-101.5,18.8-148.3s36.9-88.1,68.3-124.2c31.4-36,71.5-64.7,120.2-86.2c48.7-21.5,106-32.2,172-32.2
			c84.8,0,154.3,19.2,208.4,57.6c54.2,38.4,89.9,96.8,107.2,175.3h198.2C5533.7,1568.6,5474.7,1468.1,5383.4,1400.7"/>
		<path id="path20" class="st0" d="M5904.2,2515.2v-189.1h3.8c83.7,144.5,216.4,216.8,398.2,216.8c80.5,0,147.7-10.8,201.5-32.3
			c53.7-21.5,97.1-51.5,130.4-89.9c33.2-38.4,56.5-84.1,69.9-137.2c13.4-53.1,20.1-111.8,20.1-176.4v-783.9h-202v806.5
			c0,73.7-22.1,132.1-66.2,175.1c-44.2,43-104.8,64.5-182,64.5c-61.5,0-114.7-9.3-159.6-27.7c-44.9-18.4-82.4-44.5-112.3-78.3
			c-29.9-33.8-52.4-73.3-67.3-118.6c-15-45.3-22.5-94.9-22.5-148.7v-672.8h-202v1192.1L5904.2,2515.2"/>
		<path id="path22" class="st0" d="M8124.4,1336.1c-91.2-37.6-183.3-56.4-276.2-56.4c-146.7,0-278.6,25-395.7,74.8
			c-117.2,49.9-215.9,118.6-296.4,206.2c-80.5,87.5-142.2,190.4-185.1,308.6c-42.9,118.2-64.4,245.6-64.4,382.2
			c0,140,21.4,270,64.2,390c42.8,119.9,104.3,224.5,184.6,313.8c80.3,89.3,179,159.3,296,210.1c117.1,50.8,249,76.2,395.7,76.2
			c98.3,0,193.5-14.5,285.6-43.4c92.1-29,175.3-71.5,249.5-127.7c74.2-56.1,135.5-125.3,183.7-207.6
			c48.3-82.3,77.8-176.6,88.6-283.2h-402.3c-25.1,104.8-73.4,183.4-144.9,235.9c-71.6,52.4-158.3,78.6-260.2,78.6
			c-94.8,0-175.3-17.9-241.5-53.8c-66.1-35.9-119.8-84.1-161-144.5c-41.2-60.4-71.1-129.1-89.8-206.2
			c-18.8-77.1-28.2-156.7-28.2-239c0-78.8,9.4-155.4,28.2-229.8c18.8-74.4,48.8-141.4,90-200.9c41.1-59.5,94.9-107.2,161.1-143.1
			c66.2-35.9,146.8-53.8,241.8-53.8c139.6,0,247.4,34.4,323.6,103.3c76.1,68.8,120.4,168.6,133,299.4h-423.8v307.9h803.6v-1012
			h-267.4L8374,1534C8298.9,1439.7,8215.6,1373.7,8124.4,1336.1"/>
		<path id="path24" class="st0" d="M9367.1,3194.3V1670.5h933.5v-347.4H8946.9v1871.1H9367.1"/>
		<path id="path26" class="st0" d="M7380.1,1090.6C6737.2,708.5,5774.4,491,4700.1,491c-1935.5,0-3504.5,787.5-3504.5,1759
			s1569,1759,3504.5,1759c1078.2,0,2045-221.5,2687.8-605.9C6686.3,4047.2,5428.1,4499.8,3989.6,4500
			C1786.4,4500.4,0.2,3493.3,0,2250.6C-0.2,1008,1785.7,0.3,3988.9,0C5421.7-0.2,6676.6,450.9,7380.1,1090.6"/>
		<path id="path28" class="st0" d="M10650.3,1510h20.3c13.4,0,22.9,2.2,28.5,6.5c5.5,4.4,8.2,10,8.2,16.9c0,6.9-2.6,12.5-7.9,16.9
			c-5.3,4.4-14.3,6.6-27,6.6h-22.1V1510L10650.3,1510z M10603.7,1589.5h83.9c23.7,0,40.9-4.8,51.6-14.4
			c10.6-9.6,15.9-22.4,15.9-38.5c0-12.6-4-23.4-12.1-32.6c-8.2-9.2-21-15.9-38.4-20c7.2-2.8,12.5-5.7,15.8-8.7
			c4.8-4.3,9.8-10.7,15-19.1c0.3-0.6,10.4-18.7,30.3-54.2h-55.2c-17.9,35.7-29.9,57-36,64c-6.2,7-12.3,10.5-18.4,10.5
			c-1.4,0-3.3-0.2-5.8-0.7V1402h-46.6V1589.5L10603.7,1589.5z M10824.8,1495.7c0,39.1-13.9,72.4-41.5,100.1
			c-27.7,27.7-61,41.5-100.1,41.5s-72.4-13.8-100.1-41.5c-27.7-27.7-41.5-61-41.5-100.1s13.8-72.4,41.5-100.1
			c27.7-27.7,61-41.5,100.1-41.5s72.4,13.8,100.1,41.5C10810.9,1423.3,10824.8,1456.7,10824.8,1495.7z M10858.8,1495.7
			c0-31.4-7.9-60.7-23.6-87.8c-15.7-27.1-37.1-48.5-64.2-64.1c-27.1-15.6-56.4-23.4-87.8-23.4c-31.3,0-60.4,7.8-87.6,23.4
			c-27.1,15.6-48.5,37-64.2,64.1s-23.6,56.4-23.6,87.8c0,31.3,7.9,60.5,23.6,87.7c15.7,27.2,37.1,48.6,64.2,64.2
			c27.2,15.6,56.3,23.4,87.6,23.4c31.4,0,60.7-7.8,87.8-23.4c27.1-15.6,48.5-37,64.2-64.2
			C10850.9,1556.2,10858.8,1527,10858.8,1495.7"/>
	</g>
</g>
</svg>
