<svg id="Layer_1" data-name="Layer 1" xmlns="http://www.w3.org/2000/svg" viewBox="0 0 906.13 1000"><title>logo_ue4_blk</title><path d="M446.13,15C414.8,16.77,388,21.31,360.65,29.58c-76.13,23-141.17,69.48-187,133.62A357.51,357.51,0,0,0,120.93,273c-7,25-10.72,46.77-12.83,75.33-0.46,6.19-.46,36,0,42.52a369.88,369.88,0,0,0,8.2,57.08,355.61,355.61,0,0,0,95.17,172.28,348.26,348.26,0,0,0,75.15,57.26,356.33,356.33,0,0,0,143.16,45c9.95,0.93,13.66,1.08,28.48,1.21,15.59,0.13,22.06,0,32-.82a354.77,354.77,0,0,0,116.1-29.59c5.82-2.58,19.95-9.56,25.9-12.81A357.3,357.3,0,0,0,691.47,640,382.51,382.51,0,0,0,733,598.47,356.52,356.52,0,0,0,808.7,444.59c6.19-28.61,8.58-54.66,7.89-85.35-1.06-45.23-10.9-89-29.71-132.41a359.19,359.19,0,0,0-56.62-89.66,372.8,372.8,0,0,0-38.79-38.4A356.16,356.16,0,0,0,494.2,16.18c-10.41-1-13.32-1.08-29.77-1.16C455.23,15,447,15,446.13,15Zm39.43,45.31C527.36,63.6,565,73.9,601.4,92.1A307.93,307.93,0,0,1,762.83,293.94c5.08,20.44,7.89,40.8,8.94,65,0.57,13.09-.46,32.24-2.63,48.73A308,308,0,0,1,700.7,564.35a322.88,322.88,0,0,1-37.45,37.88A308.55,308.55,0,0,1,502.7,673.05a274.93,274.93,0,0,1-38.91,2.42,256.42,256.42,0,0,1-28.35-1.24,308.32,308.32,0,0,1-134.91-45.56,301.4,301.4,0,0,1-54.63-43.6A307.89,307.89,0,0,1,378.36,71.71,313.91,313.91,0,0,1,447.81,60C454.2,59.65,479.56,59.88,485.56,60.35Z" transform="translate(-9.93 -15)"/><path d="M419.2,154.8a24.3,24.3,0,0,1-2.58.77c-3.38.9-9.38,2.71-15.08,4.59a283.14,283.14,0,0,0-70.87,34.74c-29.77,20-59.4,47-92.62,84.27q-33.94,38.12-49.35,77.78c-9.41,24.2-13.63,49.2-11.73,69.38,0.15,1.55.36,3.25,0.46,3.74l0.21,0.9,0.28-.7c1-2.53,6.13-12.34,9.41-18.12a374.92,374.92,0,0,1,52.39-70.74C255,325,267.18,315.09,279,309.32c7.45-3.61,14.3-5.21,19.66-4.56,5.05,0.62,8.17,2.09,11.36,5.31a17.12,17.12,0,0,1,4.56,7.63l0.59,1.93,0.08,84.66c0.05,55.28,0,85.56-.18,87.23a20.09,20.09,0,0,1-2.06,7.73c-3.17,6.67-10.62,9.84-21,8.94a66.06,66.06,0,0,1-11.73-2.32c-1-.31-1.55-0.39-1.44-0.21s0.75,1.08,1.44,2.09c7.22,10.05,18.63,21.42,30.44,30.2,31.23,23.35,78,40.59,128,47.24L444.9,586l1.42-1.52c0.77-.82,4.41-4.69,8.09-8.58,10.46-11.08,12.24-13,27.42-29.1,7.86-8.35,14.43-15.2,14.56-15.2s3.22,2.47,6.83,5.54l26.67,22.52L544.45,572c0.34,0.26,1.06-.1,4-1.91a284.17,284.17,0,0,0,40.72-30.49c5.23-4.64,20-19.43,24.89-25a383.73,383.73,0,0,0,38.55-51.16c7-11,15.05-25.46,18.76-33.5l1.19-2.58-7.16,7.11c-13.61,13.45-23.63,21.91-34.76,29.15-18.48,12.11-33.86,16-45.49,11.52a20.86,20.86,0,0,1-7-4.54L577,469.33l-0.18-2.94c-0.52-8.81-1-27.94-1.62-62.75-0.54-31.08-.62-106.67-0.13-119.58,0.41-11.18.77-17.19,1.21-20.41,0.36-2.6.41-2.71,2.53-6.31,5.57-9.48,12.55-19.69,23.09-33.68,9.41-12.55,24.79-31.83,34.92-43.84,1.13-1.34,2.24-2.68,2.45-2.94,0.39-.46.36-0.49-0.75-0.31-5.64.85-20.18,4.66-29.77,7.81-38.58,12.6-76.31,35.77-102.34,62.78l-3.87,4-1.24-.88c-7.4-5.26-22.14-8.56-37.14-8.32l-4.9.08,1.7,1.06c5.28,3.38,10.9,9.2,15.36,16a64.55,64.55,0,0,1,9.28,21.78l0.72,3.17,0.05,90.84,0.08,90.84-3.3,2.6c-14.95,11.88-29.82,19.87-41.67,22.42-10.85,2.32-21-.1-29.12-7a39.33,39.33,0,0,1-8.74-11.39l-0.93-1.83V361.61c0-59.89-.08-108.86-0.18-108.8-5.28,2.68-7.22,3.3-10.67,3.3a12.13,12.13,0,0,1-9.54-4.1c-2.94-3-4.69-6.44-6.19-12.37-1.16-4.51-1.55-8-1.7-15.23-0.15-7.6.15-10.75,1.57-16.29a67.19,67.19,0,0,1,10.15-21.72c7.29-10.64,18.56-21.52,30.59-29.51,1.57-1,2.94-2,3.09-2.11C420.16,154.49,419.72,154.51,419.2,154.8Z" transform="translate(-9.93 -15)"/><path d="M694.69,198.71a23.67,23.67,0,0,1-7.22,5.46c-5.31,2.68-10.64,3.58-21.78,3.71-4,.05-4.69.1-5.08,0.49-0.23.23-10.44,14.77-22.68,32.29l-22.29,31.85-1.19,9.25c-0.67,5.08-1.21,9.33-1.21,9.43s10.9,0.21,24.22.21h24.25l-0.15.82c-0.21,1.29-3.22,25.51-3.22,26.05s0.77,0.44,13.71.39l13.74-.08,0.28-2.19c0.18-1.21.34-2.58,0.34-3l0-.82H684c-1.78,0-2.45-.08-2.45-0.34s0.41-3.38.9-7.14,1.08-8.38,1.34-10.26l0.41-3.4h13.25l0.44-3.81c1.34-11.39,1.73-14.38,1.83-14.69s-1.31-.31-6.44-0.31a52.2,52.2,0,0,1-6.65-.21c-0.08-.1.44-4.36,1.13-9.46s1.68-12.24,2.16-15.85,2.22-16.36,3.87-28.35,2.94-21.83,2.91-21.93A11.29,11.29,0,0,0,694.69,198.71Zm-27.06,41.67c-0.72,6-1.65,13.92-2.06,17.52s-1,8.38-1.24,10.57l-0.44,4-12.32.08c-10.39.05-12.32,0-12.24-.31s29.4-43,29.51-42.86S668.33,234.38,667.63,240.38Z" transform="translate(-9.93 -15)"/><path d="M10,839.61c0.1,43.63.05,42.42,1.6,48.81,3.61,15.1,14.41,21.67,39.27,23.92,8.27,0.75,17.76,1,33.53.85,18.66-.15,25.64-0.59,34.66-2.14,18.25-3.14,26.72-10.28,29.22-24.59,1-5.75,1.06-7.83,1.06-47.88v-39h-33.5v33.81c0,20.57-.1,35-0.26,36.78-1,10.64-4.54,14.51-15.08,16.24-0.85.15-3.12,0.41-5,.59-4.66.41-27.52,0.41-32.19,0C49.72,885.76,45.4,882.36,44,871.77c-0.23-1.55-.34-12.42-0.41-37.19l-0.1-35H9.93Z" transform="translate(-9.93 -15)"/><path d="M172.32,855.79V912H205v-42c0-33.5.08-42,.34-41.93s15.08,19,33.12,42L271.3,912h50V799.61H288.54v42c0,33.45-.08,42-0.31,42s-14.92-18.89-32.75-42l-32.42-42H172.32v56.18Z" transform="translate(-9.93 -15)"/><path d="M344.47,855.79V912h33V880.79H396.6c20.13,0,29.22.26,33.84,0.9,5.64,0.8,9,2.11,11.16,4.38,3.17,3.35,3.89,7,3.89,19.38V912h33V900.3c0-12.5-.21-15.87-1.16-19.71-1.68-6.6-5.15-9.59-13.4-11.55-2.11-.52-4.12-1-4.43-1-1.08-.21-0.62-0.49,1.91-1.26,9.28-2.78,14.12-8.14,16.29-18,0.64-3,.67-3.3.67-12.89,0-10.62-.21-12.83-1.57-17.65-3-10.44-10.8-15.67-26.26-17.65-6.55-.82-11.11-0.9-58.42-0.9H344.47v56.18Zm83.27-31.18c2.81,0.15,6.06.44,7.29,0.64,5.31,0.93,8,2.81,9,6.42,1,3.32.93,14.07-.13,17.45-1.24,4-4.38,5.82-11.73,6.7-1.47.18-12,.34-28.53,0.41l-26.23.13v-32h22.63C412.5,824.35,424.95,824.48,427.73,824.61Z" transform="translate(-9.93 -15)"/><path d="M500.38,855.79V912H623.82V886.46H533.37V867.13h83.76V843.68H533.37V824.35h88.39V799.61H500.38v56.18Z" transform="translate(-9.93 -15)"/><path d="M691.65,800.44c-0.77,1.31-60,110.61-60.25,111.1s1,0.44,17.7.44H667l5.1-10.05,5.1-10.05h70.72l5.18,10,5.15,10,18.12,0.08L794.45,912,793,909.19c-0.82-1.55-14.59-26.83-30.62-56.18l-29.12-53.37-20.54,0H692.17Zm32.65,45.43,11.52,22.42-11.67.08c-6.42,0-16.93,0-23.35,0l-11.67-.08,11.47-22.5c7.86-15.41,11.57-22.47,11.83-22.42S718,833.53,724.3,845.87Z" transform="translate(-9.93 -15)"/><path d="M806.8,855.79V912H916.07v-26H840.3V799.61H806.8v56.18Z" transform="translate(-9.93 -15)"/><path d="M432,948.05c-18.32,1.11-24.92,5.54-27,18-1.21,7.29-1.24,23.55,0,30.72,0.82,4.84,2.27,8.22,4.61,10.75,4.33,4.64,10.54,6.52,24,7.27,6.42,0.34,28.09.15,32-.26,9.35-1.06,14.17-2.73,17.52-6.08,4.12-4.12,5-8.43,5-24.43v-7.14H443.43v12.63H469l-0.08,2.76c-0.1,2.45-.18,2.91-0.8,4-1.34,2.29-4,3.14-11.39,3.58-8.07.49-20.82,0.15-24.64-.62a12.82,12.82,0,0,1-5.49-2.42,10.52,10.52,0,0,1-2.45-5.05c-0.52-2.4-.62-17.27-0.1-20.26a11.06,11.06,0,0,1,2.45-5.62,12.21,12.21,0,0,1,5.51-2.5c4.46-1,22.55-1.13,28.19-.28s7.32,2.24,7.83,6.65l0.18,1.49h19v-1.75a52.85,52.85,0,0,0-1-9.33,12.76,12.76,0,0,0-3.22-6.08c-3-3.2-7.47-4.77-16.57-5.8C463.32,947.92,437,947.74,432,948.05Z" transform="translate(-9.93 -15)"/><path d="M222.05,981.43v32.86h72.42V999.34H241.38V988h49.22V974.34H241.38V963h51.8V948.57H222.05v32.86Z" transform="translate(-9.93 -15)"/><path d="M304.78,981.43v32.86h19.33l0.05-24.66L324.24,965l19.23,24.61,19.2,24.59,14.74,0.08,14.74,0.05V948.57H372.81v24.64c0,14.12-.1,24.56-0.23,24.48s-8.74-11.16-19.12-24.64l-18.89-24.48H304.78v32.86Z" transform="translate(-9.93 -15)"/><path d="M499.87,981.43v32.86h19.84V948.57H499.87v32.86Z" transform="translate(-9.93 -15)"/><path d="M532.85,981.43v32.86h19.33l0.05-24.66L552.31,965l19.23,24.61,19.2,24.59,14.74,0.08,14.74,0.05V948.57H600.89v24.64c0,14.12-.1,24.56-0.23,24.48s-8.74-11.16-19.12-24.64l-18.89-24.48H532.85v32.86Z" transform="translate(-9.93 -15)"/><path d="M633.62,981.43v32.86H706V999.34H652.94V988h49.22V974.34H652.94V963h51.8V948.57H633.62v32.86Z" transform="translate(-9.93 -15)"/></svg>