<?xml version="1.0" encoding="utf-8"?>
<!-- Generator: Adobe Illustrator 21.0.2, SVG Export Plug-In . SVG Version: 6.00 Build 0)  -->
<svg version="1.1" id="Layer_1" xmlns="http://www.w3.org/2000/svg" xmlns:xlink="http://www.w3.org/1999/xlink" x="0px" y="0px"
	 viewBox="0 0 906.1 1000" style="enable-background:new 0 0 906.1 1000;" xml:space="preserve">
<style type="text/css">
	.st0{fill:#797979;}
</style>
<title>logo_ue4_blk</title>
<path class="st0" d="M436.2,0c-31.3,1.8-58.1,6.3-85.5,14.6c-76.1,23-141.2,69.5-187,133.6C140,181.5,122.2,218.7,111,258
	c-7,25-10.7,46.8-12.8,75.3c-0.5,6.2-0.5,36,0,42.5c1.2,19.2,4,38.3,8.2,57.1c14.9,65.2,47.9,125,95.2,172.3
	c22.3,22.4,47.6,41.7,75.1,57.3c44,25,92.8,40.3,143.2,45c10,0.9,13.7,1.1,28.5,1.2c15.6,0.1,22.1,0,32-0.8
	c40.1-3.2,79.4-13.2,116.1-29.6c5.8-2.6,20-9.6,25.9-12.8c21-11.5,40.9-25,59.2-40.5c14.9-12.8,28.8-26.6,41.5-41.5
	c37.4-44.4,63.4-97.2,75.7-153.9c6.2-28.6,8.6-54.7,7.9-85.4c-1.1-45.2-10.9-89-29.7-132.4c-14.3-32.5-33.4-62.7-56.6-89.7
	c-12-13.7-24.9-26.6-38.8-38.4C625.8,36.7,556.9,7.9,484.3,1.2c-10.4-1-13.3-1.1-29.8-1.2C445.3,0,437.1,0,436.2,0z M475.6,45.3
	c41.8,3.3,79.4,13.6,115.8,31.8c80.8,40.3,139.8,114.1,161.4,201.8c5.1,20.4,7.9,40.8,8.9,65c0.6,13.1-0.5,32.2-2.6,48.7
	c-7.6,57.6-31.3,112-68.4,156.7c-11.4,13.6-23.9,26.3-37.5,37.9C607.8,625.9,552,650.5,492.8,658c-12.9,1.7-25.9,2.5-38.9,2.4
	c-9.5,0.1-18.9-0.3-28.4-1.2c-47.9-4.5-94.1-20.1-134.9-45.6c-19.8-12.4-38.2-27-54.6-43.6c-120.2-120.3-120-315.3,0.3-435.4
	c36.8-36.7,82.2-63.5,132.1-77.9c22.6-6.5,45.9-10.4,69.5-11.7C444.3,44.7,469.6,44.9,475.6,45.3L475.6,45.3z"/>
<path class="st0" d="M409.3,139.8c-0.8,0.3-1.7,0.6-2.6,0.8c-3.4,0.9-9.4,2.7-15.1,4.6c-25.1,8.2-49,19.9-70.9,34.7
	c-29.8,20-59.4,47-92.6,84.3c-22.6,25.4-39.1,51.3-49.4,77.8c-9.4,24.2-13.6,49.2-11.7,69.4c0.1,1.5,0.4,3.3,0.5,3.7l0.2,0.9
	l0.3-0.7c1-2.5,6.1-12.3,9.4-18.1c14.6-25.6,32.2-49.3,52.4-70.7c15.3-16.4,27.5-26.3,39.3-32.1c7.5-3.6,14.3-5.2,19.7-4.6
	c5,0.6,8.2,2.1,11.4,5.3c2.2,2.1,3.7,4.7,4.6,7.6l0.6,1.9l0.1,84.7c0,55.3,0,85.6-0.2,87.2c-0.2,2.7-0.9,5.3-2.1,7.7
	c-3.2,6.7-10.6,9.8-21,8.9c-4-0.4-7.9-1.2-11.7-2.3c-1-0.3-1.5-0.4-1.4-0.2s0.8,1.1,1.4,2.1c7.2,10.1,18.6,21.4,30.4,30.2
	c31.2,23.3,78,40.6,128,47.2l6.2,0.8l1.4-1.5c0.8-0.8,4.4-4.7,8.1-8.6c10.5-11.1,12.2-13,27.4-29.1c7.9-8.3,14.4-15.2,14.6-15.2
	s3.2,2.5,6.8,5.5l26.7,22.5l14.6,12.3c0.3,0.3,1.1-0.1,4-1.9c14.5-8.9,28.1-19.1,40.7-30.5c5.2-4.6,20-19.4,24.9-25
	c14.3-15.9,27.1-33.1,38.5-51.2c7-11,15-25.5,18.8-33.5l1.2-2.6l-7.2,7.1c-13.6,13.5-23.6,21.9-34.8,29.1
	c-18.5,12.1-33.9,16-45.5,11.5c-2.6-1-5-2.6-7-4.5l-1.2-1.3l-0.2-2.9c-0.5-8.8-1-27.9-1.6-62.8c-0.5-31.1-0.6-106.7-0.1-119.6
	c0.4-11.2,0.8-17.2,1.2-20.4c0.4-2.6,0.4-2.7,2.5-6.3c5.6-9.5,12.5-19.7,23.1-33.7c9.4-12.6,24.8-31.8,34.9-43.8
	c1.1-1.3,2.2-2.7,2.5-2.9c0.4-0.5,0.4-0.5-0.8-0.3c-5.6,0.9-20.2,4.7-29.8,7.8c-38.6,12.6-76.3,35.8-102.3,62.8l-3.9,4l-1.2-0.9
	c-7.4-5.3-22.1-8.6-37.1-8.3l-4.9,0.1l1.7,1.1c5.3,3.4,10.9,9.2,15.4,16c4.4,6.6,7.6,14,9.3,21.8l0.7,3.2l0,90.8l0.1,90.8l-3.3,2.6
	c-15,11.9-29.8,19.9-41.7,22.4c-10.9,2.3-21-0.1-29.1-7c-3.6-3.2-6.6-7.1-8.7-11.4l-0.9-1.8V346.6c0-59.9-0.1-108.9-0.2-108.8
	c-5.3,2.7-7.2,3.3-10.7,3.3c-3.6,0.1-7.1-1.4-9.5-4.1c-2.9-3-4.7-6.4-6.2-12.4c-1.2-4.5-1.5-8-1.7-15.2c-0.1-7.6,0.1-10.8,1.6-16.3
	c2.1-7.8,5.5-15.1,10.1-21.7c7.3-10.6,18.6-21.5,30.6-29.5c1.6-1,2.9-2,3.1-2.1C410.2,139.5,409.8,139.5,409.3,139.8z"/>
<path class="st0" d="M684.8,183.7c-2,2.3-4.5,4.1-7.2,5.5c-5.3,2.7-10.6,3.6-21.8,3.7c-4,0.1-4.7,0.1-5.1,0.5
	c-0.2,0.2-10.4,14.8-22.7,32.3l-22.3,31.9l-1.2,9.3c-0.7,5.1-1.2,9.3-1.2,9.4s10.9,0.2,24.2,0.2h24.3l-0.2,0.8
	c-0.2,1.3-3.2,25.5-3.2,26s0.8,0.4,13.7,0.4l13.7-0.1l0.3-2.2c0.2-1.2,0.3-2.6,0.3-3v-0.8h-2.4c-1.8,0-2.5-0.1-2.5-0.3
	s0.4-3.4,0.9-7.1s1.1-8.4,1.3-10.3l0.4-3.4h13.3l0.4-3.8c1.3-11.4,1.7-14.4,1.8-14.7s-1.3-0.3-6.4-0.3c-2.2,0.1-4.4,0-6.7-0.2
	c-0.1-0.1,0.4-4.4,1.1-9.5s1.7-12.2,2.2-15.9s2.2-16.4,3.9-28.4s2.9-21.8,2.9-21.9C686,182.4,685.4,183,684.8,183.7z M657.7,225.4
	c-0.7,6-1.7,13.9-2.1,17.5c-0.4,3.6-1,8.4-1.2,10.6l-0.4,4l-12.3,0.1c-10.4,0-12.3,0-12.2-0.3s29.4-43,29.5-42.9
	S658.4,219.4,657.7,225.4z"/>
<path class="st0" d="M0.1,824.6c0.1,43.6,0.1,42.4,1.6,48.8c3.6,15.1,14.4,21.7,39.3,23.9c8.3,0.8,17.8,1,33.5,0.8
	c18.7-0.2,25.6-0.6,34.7-2.1c18.3-3.1,26.7-10.3,29.2-24.6c1-5.8,1.1-7.8,1.1-47.9v-39h-33.5v33.8c0,20.6-0.1,35-0.3,36.8
	c-1,10.6-4.5,14.5-15.1,16.2c-0.8,0.2-3.1,0.4-5,0.6c-4.7,0.4-27.5,0.4-32.2,0c-13.6-1.2-17.9-4.6-19.3-15.2
	c-0.2-1.5-0.3-12.4-0.4-37.2l-0.1-35H0L0.1,824.6z"/>
<path class="st0" d="M162.4,840.8V897h32.7v-42c0-33.5,0.1-42,0.3-41.9c0.3,0.1,15.1,19,33.1,42l32.8,41.9h50V784.6h-32.8v42
	c0,33.5-0.1,42-0.3,42s-14.9-18.9-32.8-42l-32.4-42h-50.7V840.8z"/>
<path class="st0" d="M334.5,840.8V897h33v-31.2h19.1c20.1,0,29.2,0.3,33.8,0.9c5.6,0.8,9,2.1,11.2,4.4c3.2,3.3,3.9,7,3.9,19.4v6.5
	h33v-11.7c0-12.5-0.2-15.9-1.2-19.7c-1.7-6.6-5.1-9.6-13.4-11.5c-2.1-0.5-4.1-1-4.4-1c-1.1-0.2-0.6-0.5,1.9-1.3
	c9.3-2.8,14.1-8.1,16.3-18c0.6-3,0.7-3.3,0.7-12.9c0-10.6-0.2-12.8-1.6-17.7c-3-10.4-10.8-15.7-26.3-17.7
	c-6.5-0.8-11.1-0.9-58.4-0.9h-47.7V840.8L334.5,840.8z M417.8,809.6c2.8,0.2,6.1,0.4,7.3,0.6c5.3,0.9,8,2.8,9,6.4
	c1,3.3,0.9,14.1-0.1,17.5c-1.2,4-4.4,5.8-11.7,6.7c-1.5,0.2-12,0.3-28.5,0.4l-26.2,0.1v-32h22.6C402.6,809.3,415,809.5,417.8,809.6
	L417.8,809.6z"/>
<path class="st0" d="M490.5,840.8V897h123.4v-25.5h-90.5v-19.3h83.8v-23.5h-83.8v-19.3h88.4v-24.7H490.5V840.8z"/>
<path class="st0" d="M681.7,785.4c-0.8,1.3-60,110.6-60.3,111.1s1,0.4,17.7,0.4h17.9l5.1-10l5.1-10H738l5.2,10l5.2,10l18.1,0.1
	l18.1,0l-1.5-2.8c-0.8-1.5-14.6-26.8-30.6-56.2l-29.1-53.4h-20.5h-20.6L681.7,785.4z M714.4,830.9l11.5,22.4l-11.7,0.1
	c-6.4,0-16.9,0-23.3,0l-11.7-0.1l11.5-22.5c7.9-15.4,11.6-22.5,11.8-22.4S708.1,818.5,714.4,830.9L714.4,830.9z"/>
<path class="st0" d="M796.9,840.8V897h109.3v-26h-75.8v-86.4h-33.5V840.8z"/>
<path class="st0" d="M422.1,933c-18.3,1.1-24.9,5.5-27,18c-1.2,7.3-1.2,23.5,0,30.7c0.8,4.8,2.3,8.2,4.6,10.8
	c4.3,4.6,10.5,6.5,24,7.3c6.4,0.3,28.1,0.2,32-0.3c9.4-1.1,14.2-2.7,17.5-6.1c4.1-4.1,5-8.4,5-24.4v-7.1h-44.7v12.6h25.6l-0.1,2.8
	c-0.1,2.5-0.2,2.9-0.8,4c-1.3,2.3-4,3.1-11.4,3.6c-8.1,0.5-20.8,0.2-24.6-0.6c-2-0.4-3.9-1.2-5.5-2.4c-1.3-1.4-2.1-3.2-2.5-5
	c-0.5-2.4-0.6-17.3-0.1-20.3c0.3-2.1,1.1-4,2.5-5.6c1.6-1.3,3.5-2.1,5.5-2.5c4.5-1,22.5-1.1,28.2-0.3s7.3,2.2,7.8,6.7l0.2,1.5h19
	v-1.8c-0.1-3.1-0.4-6.3-1-9.3c-0.5-2.3-1.6-4.4-3.2-6.1c-3-3.2-7.5-4.8-16.6-5.8C453.4,932.9,427.1,932.7,422.1,933z"/>
<path class="st0" d="M212.1,966.4v32.9h72.4v-14.9h-53.1V973h49.2v-13.7h-49.2V948h51.8v-14.4h-71.1V966.4z"/>
<path class="st0" d="M294.9,966.4v32.9h19.3l0-24.7l0.1-24.6l19.2,24.6l19.2,24.6l14.7,0.1l14.7,0v-65.8h-19.3v24.6
	c0,14.1-0.1,24.6-0.2,24.5s-8.7-11.2-19.1-24.6l-18.9-24.5h-29.8V966.4z"/>
<path class="st0" d="M489.9,966.4v32.9h19.8v-65.7h-19.8V966.4z"/>
<path class="st0" d="M522.9,966.4v32.9h19.3l0-24.7l0.1-24.6l19.2,24.6l19.2,24.6l14.7,0.1l14.7,0v-65.8H591v24.6
	c0,14.1-0.1,24.6-0.2,24.5s-8.7-11.2-19.1-24.6l-18.9-24.5h-29.8V966.4z"/>
<path class="st0" d="M623.7,966.4v32.9h72.4v-14.9H643V973h49.2v-13.7H643V948h51.8v-14.4h-71.1V966.4z"/>
</svg>
