<?xml version="1.0" encoding="utf-8"?>
<!-- Generator: Adobe Illustrator 21.0.2, SVG Export Plug-In . SVG Version: 6.00 Build 0)  -->
<svg version="1.1"
	 id="svg4170" xmlns:cc="http://creativecommons.org/ns#" xmlns:dc="http://purl.org/dc/elements/1.1/" xmlns:rdf="http://www.w3.org/1999/02/22-rdf-syntax-ns#" xmlns:svg="http://www.w3.org/2000/svg"
	 xmlns="http://www.w3.org/2000/svg" xmlns:xlink="http://www.w3.org/1999/xlink" x="0px" y="0px" viewBox="0 0 832.3 237.5"
	 style="enable-background:new 0 0 832.3 237.5;" xml:space="preserve">
<style type="text/css">
	.st0{fill:#797979;}
</style>
<g id="layer1" transform="translate(-48.3952,-201.05793)">
	<g id="g8" transform="translate(-53.952343,109.05219)">
		<path id="path10" class="st0" d="M599.7,326.5h-32.5c0,0,0-79.2,0-103.8c10.4,5.8,24.1,16.4,32.5,26.6V326.5z"/>
		<g id="g12">
			<path id="path14" class="st0" d="M325.9,326.5h-40.5l-52.8-163.2h36.8l36.3,114.8h0.5L343,163.3h37L325.9,326.5z"/>
			<path id="path16" class="st0" d="M488.9,326.5H458V310h-0.7c-4.1,6.9-9.4,11.8-16,14.9c-6.6,3-13.3,4.6-20.1,4.6
				c-8.7,0-15.8-1.1-21.4-3.4c-5.6-2.3-9.9-5.5-13.1-9.7c-3.2-4.2-5.4-9.3-6.7-15.3c-1.3-6-1.9-12.7-1.9-20v-72.7h32.5V275
				c0,9.8,1.5,17,4.6,21.8c3,4.8,8.5,7.2,16.2,7.2c8.8,0,15.3-2.6,19.2-7.9c4-5.3,5.9-13.9,5.9-25.9v-61.9h32.5L488.9,326.5
				L488.9,326.5z"/>
		</g>
		<polygon id="polygon18" class="st0" points="689.4,326.5 650.1,326.5 605.1,255.4 605,250.8 646,208.2 684.4,208.2 639.8,251.7
			"/>
		<path id="path20" class="st0" d="M695.3,244.6c0.5-7.6,2.4-13.9,5.8-19c3.4-5,7.6-9,12.8-12.1c5.2-3,11-5.2,17.5-6.5
			c6.5-1.3,13-1.9,19.5-1.9c5.9,0,12,0.4,18.1,1.3s11.7,2.5,16.7,4.9c5,2.5,9.1,5.8,12.3,10.2c3.2,4.3,4.8,10.1,4.8,17.3v61.5
			c0,5.4,0.3,10.5,0.9,15.3c0.6,4.9,1.7,8.6,3.2,11h-33c-0.6-1.8-1.1-3.7-1.5-5.6c-0.4-1.9-0.6-3.8-0.8-5.8
			c-5.2,5.4-11.3,9-18.3,11.2c-7,2.2-14.2,3.2-21.5,3.2c-5.6,0-10.9-0.7-15.8-2.1c-4.9-1.4-9.1-3.5-12.8-6.4s-6.6-6.6-8.6-11
			c-2.1-4.4-3.1-9.7-3.1-15.8c0-6.7,1.2-12.2,3.5-16.6c2.4-4.3,5.4-7.8,9.1-10.4c3.8-2.6,8-4.6,12.8-5.8c4.8-1.3,9.6-2.3,14.5-3.1
			c4.9-0.7,9.7-1.4,14.4-1.8c4.7-0.5,8.9-1.1,12.6-2.1c3.7-0.9,6.6-2.2,8.7-4c2.2-1.8,3.1-4.3,3-7.7c0-3.5-0.6-6.3-1.8-8.3
			c-1.1-2.1-2.6-3.7-4.6-4.8c-1.9-1.1-4.1-1.9-6.6-2.3c-2.5-0.4-5.2-0.6-8.1-0.6c-6.4,0-11.4,1.4-15.1,4.1
			c-3.7,2.7-5.8,7.3-6.4,13.7L695.3,244.6L695.3,244.6z M770.4,268.6c-1.4,1.2-3.1,2.2-5.1,2.9c-2.1,0.7-4.2,1.3-6.6,1.8
			c-2.3,0.5-4.8,0.8-7.4,1.1c-2.6,0.3-5.2,0.7-7.8,1.1c-2.4,0.5-4.8,1-7.2,1.8c-2.4,0.8-4.4,1.8-6.2,3.1c-1.8,1.3-3.2,3-4.2,4.9
			c-1,2-1.6,4.5-1.6,7.5c0,2.9,0.6,5.4,1.6,7.3c1,2,2.5,3.5,4.3,4.7c1.8,1.1,4,1.9,6.4,2.4c2.5,0.5,5,0.7,7.5,0.7
			c6.4,0,11.4-1,14.9-3.2c3.5-2.2,6.1-4.7,7.8-7.7c1.7-3,2.7-6,3.1-9c0.4-3,0.6-5.5,0.6-7.3V268.6L770.4,268.6z"/>
		<path id="path22" class="st0" d="M823.8,208.2h30.9v16.5h0.7c4.1-6.9,9.4-11.8,16-15c6.6-3.1,13.3-4.7,20.1-4.7
			c8.7,0,15.8,1.2,21.4,3.5c5.6,2.4,9.9,5.7,13.1,9.8c3.2,4.2,5.4,9.3,6.7,15.3c1.3,6,1.9,12.7,1.9,20v72.7h-32.5v-66.7
			c0-9.8-1.5-17-4.6-21.8c-3-4.8-8.5-7.2-16.2-7.2c-8.8,0-15.2,2.6-19.2,7.9s-5.9,13.9-5.9,25.9v61.9h-32.5L823.8,208.2L823.8,208.2
			z"/>
		<g id="g24">
			<path id="path26" class="st0" d="M510.4,187.8v138.6h32.5V205.8C532.4,199.4,521.6,193.4,510.4,187.8z"/>
		</g>
		<path id="path28" class="st0" d="M179.2,193.8c18.8-55.1,131.4-75.4,251.3-45.1c72,18.1,130.8,53.2,169.2,87.9
			c-17.4-46.1-101.8-111.7-218.2-134.2C249.8,77,120.1,99.3,104,157.7c-11.6,42.2,39.4,91.6,118.2,125.4
			C186.7,254.4,169.5,222.2,179.2,193.8z"/>
		<g id="g30">
			<path id="path32" class="st0" d="M599.8,216.5v-53.3h-32.5v16.2C581.2,191.8,592.1,204.3,599.8,216.5z"/>
		</g>
	</g>
</g>
</svg>
