<?xml version="1.0" encoding="UTF-8" standalone="no"?>
<svg
   xmlns:dc="http://purl.org/dc/elements/1.1/"
   xmlns:cc="http://creativecommons.org/ns#"
   xmlns:rdf="http://www.w3.org/1999/02/22-rdf-syntax-ns#"
   xmlns:svg="http://www.w3.org/2000/svg"
   xmlns="http://www.w3.org/2000/svg"
   version="1.1"
   id="svg4170"
   viewBox="0 0 1040.3525 296.89427"
   height="83.790161mm"
   width="293.6106mm">
  <defs
     id="defs4172" />
  <metadata
     id="metadata4175">
    <rdf:RDF>
      <cc:Work
         rdf:about="">
        <dc:format>image/svg+xml</dc:format>
        <dc:type
           rdf:resource="http://purl.org/dc/dcmitype/StillImage" />
        <dc:title></dc:title>
      </cc:Work>
    </rdf:RDF>
  </metadata>
  <g
     transform="translate(-48.3952,-201.05793)"
     id="layer1">
    <g
       id="g8"
       transform="translate(-53.952343,109.05219)">
      <path
         style="fill:#a41e22"
         id="path10"
         d="m 724.1,385.1 -40.6,0 c 0,0 0,-99 0,-129.7 13,7.2 30.1,20.5 40.6,33.3 l 0,96.4 z" />
      <g
         id="g12">
        <path
           style="fill:#a41e22"
           id="path14"
           d="m 381.8,385.1 -50.6,0 -66,-204 46,0 45.4,143.5 0.6,0 46,-143.5 46.3,0 -67.7,204 z" />
        <path
           style="fill:#a41e22"
           id="path16"
           d="m 585.5,385.1 -38.6,0 0,-20.6 -0.9,0 c -5.1,8.6 -11.8,14.8 -20,18.6 -8.2,3.8 -16.6,5.7 -25.1,5.7 -10.9,0 -19.8,-1.4 -26.7,-4.3 -7,-2.9 -12.4,-6.9 -16.4,-12.1 -4,-5.2 -6.8,-11.6 -8.4,-19.1 -1.6,-7.5 -2.4,-15.9 -2.4,-25 l 0,-90.9 40.6,0 0,83.4 c 0,12.2 1.9,21.3 5.7,27.3 3.8,6 10.6,9 20.3,9 11,0 19.1,-3.3 24,-9.9 5,-6.6 7.4,-17.4 7.4,-32.4 l 0,-77.4 40.6,0 0,147.7 z" />
      </g>
      <polygon
         style="fill:#a41e22"
         id="polygon18"
         points="836.2,385.1 787,385.1 730.8,296.2 730.7,290.5 781.9,237.3 829.9,237.3 774.2,291.6 " />
      <path
         style="fill:#a41e22"
         id="path20"
         d="m 843.6,282.8 c 0.6,-9.5 3,-17.4 7.2,-23.7 4.2,-6.3 9.5,-11.3 16,-15.1 6.5,-3.8 13.8,-6.5 21.9,-8.1 8.1,-1.6 16.2,-2.4 24.4,-2.4 7.4,0 15,0.5 22.6,1.6 7.6,1.1 14.6,3.1 20.9,6.1 6.3,3.1 11.4,7.3 15.4,12.7 4,5.4 6,12.6 6,21.6 l 0,76.9 c 0,6.7 0.4,13.1 1.1,19.1 0.8,6.1 2.1,10.7 4,13.7 l -41.2,0 c -0.8,-2.3 -1.4,-4.6 -1.9,-7 -0.5,-2.4 -0.8,-4.8 -1,-7.3 -6.5,6.7 -14.1,11.3 -22.9,14 -8.8,2.7 -17.7,4 -26.9,4 -7,0 -13.6,-0.9 -19.7,-2.6 -6.1,-1.7 -11.4,-4.4 -16,-8 -4.6,-3.6 -8.2,-8.2 -10.7,-13.7 -2.6,-5.5 -3.9,-12.1 -3.9,-19.7 0,-8.4 1.5,-15.3 4.4,-20.7 3,-5.4 6.8,-9.8 11.4,-13 4.7,-3.2 10,-5.7 16,-7.3 6,-1.6 12,-2.9 18.1,-3.9 6.1,-0.9 12.1,-1.7 18,-2.3 5.9,-0.6 11.1,-1.4 15.7,-2.6 4.6,-1.1 8.2,-2.8 10.9,-5 2.7,-2.2 3.9,-5.4 3.7,-9.6 0,-4.4 -0.7,-7.9 -2.2,-10.4 -1.4,-2.6 -3.3,-4.6 -5.7,-6 -2.4,-1.4 -5.1,-2.4 -8.3,-2.9 -3.1,-0.5 -6.5,-0.7 -10.1,-0.7 -8,0 -14.3,1.7 -18.9,5.1 -4.6,3.4 -7.2,9.1 -8,17.1 l -40.3,0 z m 93.8,30 c -1.7,1.5 -3.9,2.7 -6.4,3.6 -2.6,0.9 -5.3,1.6 -8.3,2.2 -2.9,0.6 -6,1 -9.3,1.4 -3.2,0.4 -6.5,0.9 -9.7,1.4 -3,0.6 -6,1.3 -9,2.3 -3,1 -5.5,2.2 -7.7,3.9 -2.2,1.6 -4,3.7 -5.3,6.1 -1.3,2.5 -2,5.6 -2,9.4 0,3.6 0.7,6.7 2,9.1 1.3,2.5 3.1,4.4 5.4,5.9 2.3,1.4 5,2.4 8,3 3.1,0.6 6.2,0.9 9.4,0.9 8,0 14.2,-1.3 18.6,-4 4.4,-2.7 7.6,-5.9 9.7,-9.6 2.1,-3.7 3.4,-7.5 3.9,-11.3 0.5,-3.8 0.7,-6.9 0.7,-9.1 l 0,-15.2 z" />
      <path
         style="fill:#a41e22"
         id="path22"
         d="m 1004.2,237.3 38.6,0 0,20.6 0.9,0 c 5.1,-8.6 11.8,-14.8 20,-18.7 8.2,-3.9 16.6,-5.9 25.1,-5.9 10.9,0 19.8,1.5 26.7,4.4 7,3 12.4,7.1 16.4,12.3 4,5.2 6.8,11.6 8.4,19.1 1.6,7.5 2.4,15.9 2.4,25 l 0,90.9 -40.6,0 0,-83.4 c 0,-12.2 -1.9,-21.3 -5.7,-27.3 -3.8,-6 -10.6,-9 -20.3,-9 -11,0 -19,3.3 -24,9.9 -5,6.6 -7.4,17.4 -7.4,32.4 l 0,77.4 -40.6,0 0,-147.7 z" />
      <g
         id="g24">
        <path
           style="fill:#a41e22"
           id="path26"
           d="m 612.4,211.8 0,173.2 40.6,0 0,-150.8 c -13.1,-8 -26.6,-15.5 -40.6,-22.4 z" />
      </g>
      <path
         style="fill:#a41e22"
         id="path28"
         d="M 198.4,219.2 C 221.9,150.3 362.6,125 512.5,162.8 602.5,185.4 676,229.3 724,272.7 702.3,215.1 596.7,133.1 451.2,105 286.7,73.2 124.5,101.1 104.4,174.1 89.9,226.8 153.6,288.6 252.1,330.8 207.8,295 186.3,254.8 198.4,219.2 Z" />
      <g
         id="g30">
        <path
           style="fill:#a41e22"
           id="path32"
           d="m 724.2,247.6 0,-66.6 -40.6,0 0,20.2 c 17.3,15.5 31,31.2 40.6,46.4 z" />
      </g>
    </g>
  </g>
</svg>
